<svg width="23" height="15" viewBox="0 0 23 15" fill="none" xmlns="http://www.w3.org/2000/svg">
<path d="M22.8201 9.54889C22.3887 7.58791 20.6238 6.11717 18.5256 6.11717C17.4667 6.11717 16.4862 6.48976 15.7214 7.11727L14.8586 6.19561L15.4272 4.43073H15.9959C16.2509 4.43073 16.7019 4.19541 16.7019 3.82283C16.7019 3.45024 16.3489 3.15609 15.8587 3.15609C15.3684 3.15609 14.5252 3.62673 13.7212 3.62673C12.9368 3.62673 12.7799 3.88166 12.7799 4.09736C12.7799 4.29346 12.9172 4.43073 13.1721 4.43073H14.7997L13.1133 9.74499H12.9564C12.3681 9.74499 11.8583 10.1568 11.6818 10.6863C11.5445 10.5686 11.3484 10.3921 11.1523 10.0784C10.7601 9.54889 10.3875 8.84294 10.0345 8.15659C9.70118 7.5683 9.40703 6.99961 9.11289 6.54859C8.64225 5.82303 8.07357 5.33278 7.38723 5.05824C7.01464 4.92098 6.66166 4.86215 6.38713 4.84254L6.97542 2.3717C6.99503 2.29326 6.99503 2.21482 6.95581 2.15599L6.40674 1.27355H8.09318C8.26967 1.27355 8.38733 1.13628 8.38733 0.979406C8.38733 0.822529 8.26967 0.685259 8.09318 0.685259H5.95571C5.87727 0.66565 5.79883 0.685259 5.74 0.72448C5.60274 0.802919 5.56351 0.979406 5.64195 1.13628L6.38713 2.35209L5.74 4.99942C5.72039 5.03864 5.72039 5.05824 5.72039 5.09746L5.58313 5.66615C5.19093 5.5681 4.79873 5.52888 4.38693 5.52888C4.23005 5.52888 4.09278 5.64654 4.09278 5.82303C4.09278 5.97991 4.23005 6.11717 4.38693 6.11717C4.7399 6.11717 5.09288 6.15639 5.42625 6.23483L5.36742 6.50937C4.99483 6.41132 4.62224 6.35249 4.21044 6.35249C1.91609 6.35249 0.0531616 8.21542 0.0531616 10.5098C0.0531616 12.8041 1.91609 14.667 4.21044 14.667C6.50479 14.667 8.36772 12.8041 8.36772 10.5098C8.36772 8.82333 7.36762 7.3722 5.91649 6.72508L5.99493 6.43093C7.50489 7.05844 8.58342 8.54879 8.58342 10.2941C8.58342 10.4509 8.70108 10.5882 8.87757 10.5882C9.03445 10.5882 9.17172 10.4509 9.17172 10.2941C9.17172 9.01942 8.66186 7.82323 7.75981 6.92118C7.28918 6.45054 6.7401 6.09756 6.1322 5.84264L6.24986 5.41122C6.52439 5.43083 6.83815 5.47005 7.17152 5.60732C7.7402 5.84264 8.21084 6.25444 8.62264 6.86235C8.89718 7.29376 9.19133 7.86245 9.50508 8.43113C10.211 9.74499 10.8778 11 11.6426 11.353C11.6818 11.5295 11.7406 11.6864 11.8387 11.8236L10.7797 12.8826H10.211C10.0345 12.8826 9.91689 13.0198 9.91689 13.1767C9.91689 13.3532 10.0345 13.4708 10.211 13.4708H11.819C11.9955 13.4708 12.1132 13.3532 12.1132 13.1767C12.1132 13.0198 11.9955 12.8826 11.819 12.8826H11.6033L12.2505 12.255C12.4662 12.3923 12.7015 12.4707 12.976 12.4707C13.4663 12.4707 13.8977 12.2158 14.133 11.8236L14.5644 11.7648C15.0939 13.4512 16.6627 14.667 18.5256 14.667C20.8199 14.667 22.6829 12.8041 22.6829 10.5098C22.6829 10.196 22.6633 9.90187 22.5848 9.60772C22.7025 9.58811 22.7809 9.5685 22.8201 9.54889ZM3.1319 4.58761C3.19073 4.88176 3.46527 5.13668 3.77902 5.13668H4.81834C5.11249 5.13668 5.42625 4.90137 5.48508 4.58761L5.91649 2.72468C5.97532 2.43053 5.79883 2.19521 5.48508 2.19521H3.36722C3.05346 2.19521 2.83775 2.43053 2.87697 2.74429L3.1319 4.58761ZM14.6625 6.82313L15.3096 7.50947C14.7801 8.07815 14.4075 8.7645 14.231 9.50967C14.2899 9.58811 14.3487 9.64694 14.4468 9.70577C14.4468 9.72538 14.4468 9.72538 14.4271 9.74499H13.7212L14.6625 6.82313ZM4.01434 9.58811L3.91629 9.62733L2.70048 7.48986C3.09268 7.29376 3.54371 7.1761 4.01434 7.13688V9.58811ZM4.99483 8.03893L4.40654 9.41162V7.13688C4.68107 7.15649 4.936 7.19571 5.19093 7.27415L4.99483 8.03893ZM2.34751 7.68596L3.58293 9.82343L3.5241 9.88226L1.38663 8.66645C1.64156 8.27425 1.97492 7.94089 2.34751 7.68596ZM7.03425 8.66645L4.91639 9.88226L4.85756 9.84304L4.97522 9.58811L6.07337 7.68596C6.44596 7.94089 6.77932 8.27425 7.03425 8.66645ZM19.1923 9.86265L20.114 8.27425H20.1728C20.6238 8.27425 21.016 8.48996 21.3102 8.78411L19.2708 9.94108C19.2512 9.92148 19.2315 9.88226 19.1923 9.86265ZM18.859 9.64694L18.7217 9.58811V9.54889C18.7805 9.47045 18.8393 9.39201 18.8786 9.31357C19.0354 9.05864 19.2315 8.70567 19.5257 8.48996L18.859 9.64694ZM1.19053 8.99981L3.328 10.2156C3.30839 10.2548 3.30839 10.2941 3.28878 10.3137H0.837554C0.876773 9.84304 0.994432 9.39201 1.19053 8.99981ZM7.58332 10.3137H5.1321C5.11249 10.2941 5.11249 10.2548 5.11249 10.2156L7.23035 8.99981C7.42645 9.39201 7.56371 9.84304 7.58332 10.3137ZM19.4669 10.4117C19.4473 10.3725 19.4473 10.3333 19.4473 10.3137L21.5455 9.09786C21.5847 9.15669 21.6239 9.21552 21.6436 9.27435C21.6828 9.35279 21.7024 9.41162 21.7416 9.45084C21.8396 9.74499 21.8985 10.0784 21.8985 10.4117H19.4669ZM0.837554 10.7059H3.28878L3.328 10.8039L1.19053 12.0197C0.994432 11.6275 0.876773 11.1765 0.837554 10.7059ZM7.23035 12.0197L5.11249 10.8039C5.11249 10.7647 5.11249 10.7451 5.1321 10.7059H7.58332C7.56371 11.1765 7.42645 11.6275 7.23035 12.0197ZM21.5063 12.0982L19.3884 10.8824C19.408 10.8431 19.408 10.8235 19.4276 10.8039H21.8985C21.8593 11.2746 21.722 11.706 21.5063 12.0982ZM1.38663 12.3727L3.5241 11.1373L3.58293 11.2157L2.34751 13.3336C1.97492 13.0787 1.64156 12.7453 1.38663 12.3727ZM6.07337 13.3336L4.83795 11.2157C4.85756 11.1961 4.87717 11.1569 4.91639 11.1373L7.03425 12.3727C6.77932 12.7453 6.44596 13.0787 6.07337 13.3336ZM20.3493 13.3532L19.1139 11.2353L19.1727 11.1961L21.3102 12.4315C21.0553 12.8041 20.7219 13.1179 20.3493 13.3532ZM15.7606 12.4315L17.6432 11.353L17.8981 11.3138L16.7215 13.3532C16.3293 13.1179 16.0155 12.8041 15.7606 12.4315ZM4.01434 11.4314V13.8827C3.54371 13.863 3.09268 13.7258 2.70048 13.5297L3.91629 11.4118C3.95551 11.4118 3.97512 11.4314 4.01434 11.4314ZM4.40654 11.4314C4.44576 11.4314 4.46537 11.4118 4.50459 11.4118L5.72039 13.5297C5.3282 13.7258 4.87717 13.863 4.40654 13.8827V11.4314ZM18.3295 11.4314V13.8827C17.8785 13.863 17.4471 13.7454 17.0549 13.5493L18.2903 11.4118C18.3099 11.4314 18.3295 11.4314 18.3295 11.4314ZM18.7217 11.4314C18.7413 11.4314 18.7609 11.4118 18.7805 11.4118L19.9963 13.5493C19.6237 13.7454 19.1923 13.863 18.7217 13.8827V11.4314ZM16.6234 11.4903L15.5449 12.0982C15.4665 11.9609 15.4076 11.804 15.3488 11.6471L16.6234 11.4903Z" fill="white"/>
</svg>
