<svg width="11" height="13" viewBox="0 0 11 13" fill="none" xmlns="http://www.w3.org/2000/svg">
<path d="M10.4295 3.77994C10.1158 3.25048 9.05685 1.91701 8.68427 1.48559C8.50778 1.23067 8.11558 0.936518 7.80183 0.877689C6.60563 0.622762 6.5468 0.583542 6.11538 0.583542C5.37021 0.583542 4.66426 0.79925 4.52699 0.81886L2.11499 1.40715C1.80123 1.48559 1.42864 1.76013 1.33059 2.01506L0.310884 4.01526C0.193225 4.27018 0.154006 4.78004 0.271664 5.07419L2.78172 11.5258C2.97782 12.0553 3.37001 12.5651 5.25255 12.5651C7.13509 12.5651 8.64505 12.0749 8.82154 11.5062L10.6452 4.83887C10.7041 4.52511 10.6845 4.17214 10.4295 3.77994ZM5.38982 12.1729C4.44855 12.1729 3.48767 11.918 3.48767 11.565C3.48767 11.3101 4.7427 10.7218 6.25265 10.7218C7.50768 10.7218 8.25285 11.2121 8.25285 11.3885C8.25285 11.7219 6.82134 12.1729 5.38982 12.1729Z" fill="white"/>
</svg>
