<?xml version="1.0" encoding="utf-8"?>
<!-- Generator: Adobe Illustrator 23.0.6, SVG Export Plug-In . SVG Version: 6.00 Build 0)  -->
<svg version="1.1" id="圖層_1" xmlns="http://www.w3.org/2000/svg" xmlns:xlink="http://www.w3.org/1999/xlink" x="0px" y="0px"
	 viewBox="0 0 49 21" style="enable-background:new 0 0 49 21;" xml:space="preserve">
<style type="text/css">
	.st0{fill:#222222;}
	.st1{fill:url(#SVGID_1_);}
	.st2{fill:#3FB195;}
</style>
<path class="st0" d="M12.8,11.9l1-4.8h2.3l0.3-1.4h-6.2L10,7.1h2.3l-1,4.8H12.8z"/>
<path class="st0" d="M15.7,12.7h1.6l0.6-2.1h1.4l0.9,2.8h1.7l-1-3C22,10,22.7,9,22.7,7.9c0-1.3-1-2.2-2.4-2.2h-3L15.7,12.7z M18.6,7
	h1.3C20.6,7,21,7.4,21,8c0,0.8-0.6,1.3-1.6,1.3h-1.4L18.6,7z"/>
<linearGradient id="SVGID_1_" gradientUnits="userSpaceOnUse" x1="22.0062" y1="9.5156" x2="29.185" y2="9.5156">
	<stop  offset="0" style="stop-color:#FFFFFF"/>
	<stop  offset="1" style="stop-color:#000000"/>
</linearGradient>
<path class="st1" d="M27.5,13.3h1.6l-1-7.6h-1.8L22,13.3h1.7l1-1.8h2.7L27.5,13.3z M26.9,7.3H27l0.3,3h-2L26.9,7.3z"/>
<path class="st0" d="M33.1,13.3l4.2-7.6h-1.8l-2.9,5.8h-0.1l-0.5-5.8h-1.7l1,7.6H33.1z"/>
<path class="st0" d="M41.7,12h-3.5l0.4-1.9H42l0.3-1.3H39l0.4-1.8h3.5l0.3-1.4H38l-1.6,7.6h5.1L41.7,12z"/>
<path class="st0" d="M45.6,11.9h-1.1l1.3-6.2h-1.6l-1.6,7.6h1.6L45.6,11.9z"/>
<path class="st2" d="M4.4,12.4c-0.1,0-0.2,0.1-0.3,0.1C4.3,12.5,4.4,12.4,4.4,12.4c2.7-1,9.9-2.1,18.9,0.9
	c9.3,3.2,20.7-0.6,25.2-2.9c-4.1,3.5-14.9,9.5-25.2,5C13.4,11.1,6.8,11.6,4.4,12.4z"/>
<path class="st2" d="M7.4,0.8c0.1,0,0.2-0.1,0.3-0.1h0.1C7.9,0.7,8,0.8,8,0.8l0.3,0.4c0,0.1,0.2,0.1,0.3,0.1l0.9,0.3
	c0.1,0,0.2,0.1,0.2,0.1L10,2.3c0.1,0,0,0.1,0,0.2L9.4,3.1c0,0-0.1,0.2-0.2,0.3L9.2,3.8v0.3l0.1,0.2c0.1,0.1,0.1,0.2,0.1,0.3l0,0.1
	c0,0.1,0,0.2,0,0.3L9.1,5.8C9.1,5.9,9,6,8.9,6.1L8.4,7.5C8.3,7.6,8.3,7.8,8.3,7.9c0,0.1,0,0.2,0,0.3c-0.1,0.9-0.5,3.1-0.6,3.3
	l-0.4,1.3c0,0.1-0.1,0.2-0.1,0.3c-0.1,0.3,0,0.3-0.2,0.5L6.1,15c0,0.1-0.1,0.2-0.2,0.2l-0.6,0.7c0,0.1-0.1,0.2-0.1,0.3l-0.6,1.5
	c0,0.1,0,0.3,0,0.3v1.6c0,0.1,0,0.2-0.1,0.3l-0.1,0.3c0,0.1-0.1,0.1-0.2,0.1l-0.3-0.1c0,0-0.2-0.1-0.3-0.2l-0.1-0.1
	c0-0.1-0.1-0.2-0.1-0.3l0.1-0.4c0-0.1,0-0.2,0-0.3l-0.3-0.7c0-0.1-0.1-0.2-0.2-0.3l-0.7-0.7C2,17,1.9,17,1.8,17h0
	c-0.1,0-0.2-0.1-0.2-0.2L1,16.1c0-0.1-0.1-0.2-0.1-0.3l-0.1-0.5c0-0.1,0-0.2,0-0.3v-0.6c0-0.1,0-0.2-0.1-0.2l-0.4-0.3
	C0,13.8,0,13.6,0,13.6l0-0.3c0-0.1,0.1-0.2,0.1-0.3l0.1-0.4c0-0.1,0.1-0.2,0.1-0.3l0.1,0c0.1-0.1,0.1-0.2,0.1-0.3l-0.1-1.7
	c0-0.1,0-0.2,0.1-0.3l2.8-5c0-0.1,0.1-0.2,0.2-0.3l0.6-0.7c0.1,0,0.2-0.2,0.2-0.2l0.7-1.6c0-0.1,0.2-0.2,0.2-0.2L6,1.8
	c0.1,0,0.2-0.1,0.4-0.1l0.4-0.1C6.9,1.5,7,1.4,7,1.4c0-0.1,0-0.2,0.1-0.3L7.4,0.8z"/>
</svg>
