<svg width="17" height="17" viewBox="0 0 17 17" fill="none" xmlns="http://www.w3.org/2000/svg">
<path d="M3.51211 0.744965L1.13933 3.4119H5.86529L3.51211 0.744965ZM1.96294 6.07883H5.04168L5.61036 3.80409H4.74753L4.4926 4.98068C4.41417 5.27483 4.25729 5.27483 4.02197 5.27483H2.92382C2.70811 5.27483 2.53162 5.27483 2.4728 4.98068C2.39436 4.68653 2.19826 3.80409 2.19826 3.80409H1.39426L1.96294 6.07883ZM16.0428 12.6089H15.4349V12.2167H15.0427V9.74586H6.70851V12.2167H6.31632V12.6089H4.86519V6.47103H2.13943V12.6089H1.02167L0.335327 16.4328H7.21837L7.70861 12.805H9.47349L9.86569 16.4328H16.6115L16.0428 12.6089ZM3.86509 8.09864H3.13953V7.25542H3.86509V8.09864ZM7.70861 7.35347V7.74566H13.9445V7.35347H7.70861ZM15.4545 9.00069L14.2779 8.13786H7.41446L6.31632 9.00069V9.35367H15.4545V9.00069ZM3.86509 10.04H3.13953V9.19679H3.86509V10.04ZM8.80676 12.2167H7.37525V10.8636C7.37525 10.5891 7.689 10.3734 8.0812 10.3734C8.47339 10.3734 8.80676 10.5891 8.80676 10.8636V12.2167ZM10.6893 12.2167H9.2774V10.8636C9.2774 10.5891 9.59115 10.3734 9.98335 10.3734C10.3755 10.3734 10.6893 10.5891 10.6893 10.8636V12.2167ZM12.5915 12.2167H11.1795V10.8636C11.1795 10.5891 11.4933 10.3734 11.8855 10.3734C12.2777 10.3734 12.5915 10.5891 12.5915 10.8636V12.2167ZM14.4152 12.2167H13.0033V10.8636C13.0033 10.5891 13.317 10.3734 13.7092 10.3734C14.1014 10.3734 14.4152 10.5891 14.4152 10.8636V12.2167ZM3.86509 12.6089H3.13953V11.3343H3.86509V12.6089Z" fill="white"/>
</svg>
