<svg width="24" height="11" viewBox="0 0 24 11" fill="none" xmlns="http://www.w3.org/2000/svg">
<path d="M5.93858 3.39764L6.01702 3.69178C6.01702 3.69178 6.82102 4.02515 7.91917 4.02515H16.5867C17.6652 4.02515 18.4692 3.69178 18.4692 3.69178L18.5673 3.39764C16.8612 3.69178 16.4298 1.82885 16.4102 1.77002L16.7828 0.671875H16.4102C16.018 0.867973 15.1552 1.67197 12.2529 1.67197C9.35068 1.67197 8.48785 0.867973 8.09565 0.671875H7.70346L8.07604 1.77002C8.07604 1.82885 7.64463 3.69178 5.93858 3.39764ZM12.2529 1.45627C12.4294 1.45627 12.5863 1.29939 12.5863 1.10329C12.5863 0.926802 12.4294 0.769923 12.2529 0.769923C12.0568 0.769923 11.9 0.926802 11.9 1.10329C11.9 1.29939 12.0568 1.45627 12.2529 1.45627ZM20.7636 3.96632C19.4497 4.16242 19.3909 3.00544 19.3909 2.86817L19.5282 2.14261H19.136C18.881 2.47598 19.0968 2.59363 17.2927 2.65246C17.528 2.90739 17.8417 3.02505 18.2339 3.02505C18.5281 3.02505 18.783 2.94661 18.9007 3.06427C18.9595 3.1231 19.0183 3.3192 18.881 3.82905C18.8614 3.90749 18.8222 3.94671 18.7438 3.98593C18.7046 4.00554 17.8417 4.33891 17.0181 4.39774V4.82915H19.7831C20.3322 4.82915 20.7636 4.35852 20.7636 4.35852V3.96632ZM3.76189 3.98593V4.37813C3.76189 4.37813 4.1933 4.84876 4.74238 4.84876H7.50736V4.41735C6.68375 4.35852 5.82092 4.02515 5.7817 4.00554C5.70326 3.96632 5.66404 3.9271 5.64443 3.84866C5.50716 3.33881 5.56599 3.14271 5.62482 3.08388C5.74248 2.96622 5.99741 3.04466 6.29155 3.04466C6.68375 3.04466 6.99751 2.927 7.23282 2.67207C5.42872 2.61324 5.64443 2.49559 5.3895 2.16222H4.99731L5.13457 2.88778C5.13457 3.02505 5.07575 4.18203 3.76189 3.98593ZM20.1753 5.5351H23.7051V5.14291C23.0383 4.67227 22.2931 3.75061 22.2931 3.75061H21.0185C21.0577 3.77022 21.1558 3.88788 21.1558 4.1232V4.35852C21.1558 4.45657 21.1362 4.57422 21.0773 4.63305C20.9989 4.71149 20.7048 5.04486 20.1753 5.14291V5.5351ZM4.35018 5.55471V5.16252C3.82072 5.06447 3.52657 4.7311 3.44813 4.65266C3.3893 4.59383 3.36969 4.47618 3.36969 4.37813V4.14281C3.36969 3.90749 3.46774 3.78983 3.50696 3.77022H2.23232C2.23232 3.77022 1.48715 4.69188 0.820419 5.16252V5.55471H4.35018ZM16.5867 9.30019V4.41735H7.89956V9.30019H8.72317V5.7312H9.9978V9.30019H11.4097V5.7312H13.0765V9.30019H14.5081V5.7312H15.7827V9.30019H16.5867ZM13.5668 5.33901H10.9391V4.80954H13.5668V5.33901ZM7.50736 9.30019V5.24096H4.74238V9.30019H5.54638V5.9273H6.48765V9.30019H7.50736ZM19.7439 9.30019V5.24096H16.9789V9.30019H18.0378V5.9273H18.9399V9.30019H19.7439ZM4.35018 9.30019V5.94691H1.64403V9.30019H4.35018ZM20.1361 9.30019H22.8422V5.94691H20.1361V9.30019ZM1.64403 9.69238V10.4768H22.8422V9.69238H1.64403Z" fill="white"/>
</svg>
