<svg width="9" height="15" viewBox="0 0 9 15" fill="none" xmlns="http://www.w3.org/2000/svg">
<path d="M3.97812 14.2908C8.64525 14.2908 7.23335 13.0554 6.86076 12.2906C6.66466 11.8592 6.48817 11.3885 6.37051 10.9179C6.29207 10.5845 6.21363 10.2512 6.25285 9.9178C6.33129 9.1138 6.72349 7.99604 7.25295 7.72151C7.39022 7.64307 7.60593 7.64307 7.72359 7.56463C7.99813 7.38814 7.88047 6.95672 8.03735 6.7018C8.07657 6.62336 7.91969 6.15272 8.15501 5.81936C8.29227 5.66248 8.23344 5.40755 8.03735 5.28989C7.88047 5.15262 7.84125 4.91731 7.72359 4.74082C7.48827 4.42706 7.44905 4.07408 7.33139 3.74072C7.29217 3.54462 7.25295 3.34852 7.11569 3.23086C7.03725 3.17203 6.89998 3.1132 6.80193 3.07398C6.48817 2.93672 6.01754 2.77984 5.97832 2.38764C5.97832 2.34842 5.88027 2.26998 5.84105 2.25037C5.76261 2.21115 5.19393 2.21115 5.11549 2.25037C4.97822 2.1131 4.33109 2.1131 4.31148 1.83857C4.31148 1.7013 4.135 1.60325 4.05656 1.54442C3.68397 1.34832 3.331 1.56403 3.37021 1.17183C3.40943 0.995346 3.40943 0.916907 3.31139 0.779639C3.1349 0.56393 2.95841 0.68159 2.84075 0.838467C2.66426 1.113 2.46816 1.36793 2.31129 1.64247C2.05636 2.07388 1.86026 2.46608 1.87987 2.95633C1.87987 3.28969 1.86026 3.58384 2.21324 3.76033C2.40933 3.87799 2.56621 4.03487 2.5466 4.32901C2.5466 4.38784 2.58582 4.42706 2.62504 4.48589C3.17412 5.13301 2.97802 5.17223 3.5467 5.54482C3.68397 5.62326 3.88007 5.66248 3.95851 5.81936C4.09578 6.05467 4.09578 6.3096 4.27227 6.52531C4.37031 6.64297 4.38992 6.78024 4.48797 6.8979C4.60563 6.99594 4.72329 7.15282 4.7429 7.32931C4.76251 7.44697 4.68407 7.56463 4.68407 7.68229C4.68407 7.72151 4.72329 7.79995 4.72329 7.81956C4.72329 7.87838 4.66446 7.9176 4.66446 7.95682C4.66446 8.09409 4.7429 8.1137 4.7429 8.32941C4.7429 8.44707 4.72329 8.54512 4.72329 8.62356C4.70368 8.78044 4.42914 9.46678 3.91929 10.1139C3.37021 10.8395 3.21334 10.9963 2.9388 11.3297C2.58582 11.7415 2.09558 11.8788 1.62494 12.0945C0.585623 12.8201 -0.0615 12.8985 0.507184 13.526C0.89938 13.9574 1.60533 14.0947 2.1348 14.1731C2.78192 14.2712 3.38982 14.2908 3.97812 14.2908Z" fill="white"/>
</svg>
