<svg width="9" height="17" viewBox="0 0 9 17" fill="none" xmlns="http://www.w3.org/2000/svg">
<path d="M8.27043 5.80934H6.19179L7.30955 0.769623L6.66243 0.632355L5.52506 5.80934H0.622612C0.524563 5.80934 0.426514 5.88778 0.426514 6.00544C0.426514 6.10349 0.524563 6.20154 0.622612 6.20154H0.975588L1.05403 8.84886L1.42661 10.1431L1.68154 16.1437C1.68154 16.2418 1.77959 16.3202 1.87764 16.3202H7.03502C7.13306 16.3202 7.23111 16.2418 7.23111 16.1437L7.48604 10.1431L7.83902 8.84886L7.95668 6.20154H8.27043C8.36848 6.20154 8.44692 6.10349 8.44692 6.00544C8.44692 5.88778 8.36848 5.80934 8.27043 5.80934ZM5.42701 6.20154L5.01521 8.14291C4.77989 8.1233 4.66223 8.04486 4.52496 7.98603C4.34847 7.90759 4.17198 7.80954 3.7994 7.80954C3.42681 7.80954 3.23071 7.90759 3.07384 7.98603C2.93657 8.06447 2.7993 8.14291 2.50515 8.14291C2.23062 8.14291 2.09335 8.06447 1.95608 7.98603C1.81881 7.9272 1.66193 7.84876 1.42661 7.82915L1.36778 6.20154H5.42701ZM7.48604 8.1233C7.32916 8.10369 7.23111 8.04486 7.13306 7.98603C6.95658 7.90759 6.76048 7.80954 6.38789 7.80954C6.07414 7.80954 5.89765 7.88798 5.72116 7.96642L6.11336 6.20154H7.54487L7.48604 8.1233ZM7.09384 9.98623L6.83892 15.928H2.07374L1.81881 9.98623L1.44622 8.69198L1.42661 8.22135C1.58349 8.24096 1.68154 8.28018 1.77959 8.339C1.95608 8.43705 2.13257 8.49588 2.50515 8.49588C2.89735 8.49588 3.07384 8.43705 3.23071 8.339C3.38759 8.26057 3.52486 8.20174 3.7994 8.20174C4.09355 8.20174 4.2112 8.26057 4.36808 8.339C4.54457 8.43705 4.72106 8.49588 5.11326 8.49588C5.46623 8.49588 5.66233 8.43705 5.83882 8.339C5.97609 8.26057 6.11336 8.20174 6.38789 8.20174C6.66243 8.20174 6.7997 8.26057 6.95658 8.339C7.09384 8.41744 7.23111 8.47627 7.46643 8.49588V8.69198L7.09384 9.98623ZM2.91696 12.3982C3.23071 12.3982 3.48564 12.1433 3.48564 11.8295C3.48564 11.5158 3.23071 11.2805 2.91696 11.2805C2.62281 11.2805 2.34827 11.5158 2.34827 11.8295C2.34827 12.1433 2.62281 12.3982 2.91696 12.3982ZM5.89765 11.4962C5.56428 11.4962 5.32896 11.7315 5.32896 12.0453C5.32896 12.359 5.56428 12.6335 5.89765 12.6335C6.2114 12.6335 6.44672 12.359 6.44672 12.0453C6.44672 11.7315 6.2114 11.4962 5.89765 11.4962ZM4.30925 13.3199C4.64262 13.3199 4.87794 13.065 4.87794 12.7512C4.87794 12.4767 4.64262 12.2021 4.30925 12.2021C4.01511 12.2021 3.76018 12.4767 3.76018 12.7512C3.76018 13.065 4.01511 13.3199 4.30925 13.3199ZM2.87774 14.0258C3.17189 14.0258 3.44642 13.7709 3.44642 13.4768C3.44642 13.1434 3.17189 12.8885 2.87774 12.8885C2.56398 12.8885 2.30905 13.1434 2.30905 13.4768C2.30905 13.7709 2.56398 14.0258 2.87774 14.0258ZM5.77999 14.1043C6.11336 14.1043 6.36828 13.8494 6.36828 13.5356C6.36828 13.2218 6.11336 12.9669 5.77999 12.9669C5.48584 12.9669 5.23091 13.2218 5.23091 13.5356C5.23091 13.8494 5.48584 14.1043 5.77999 14.1043ZM4.38769 13.7905C4.09355 13.7905 3.83862 14.0258 3.83862 14.3396C3.83862 14.6534 4.09355 14.8887 4.38769 14.8887C4.70145 14.8887 4.95638 14.6534 4.95638 14.3396C4.95638 14.0258 4.70145 13.7905 4.38769 13.7905ZM3.03462 14.5161C2.74047 14.5161 2.46593 14.7906 2.46593 15.0848C2.46593 15.3985 2.74047 15.6535 3.03462 15.6535C3.34837 15.6535 3.6033 15.3985 3.6033 15.0848C3.6033 14.7906 3.34837 14.5161 3.03462 14.5161ZM5.89765 14.5357C5.56428 14.5357 5.32896 14.7906 5.32896 15.0848C5.32896 15.3985 5.56428 15.6535 5.89765 15.6535C6.2114 15.6535 6.44672 15.3985 6.44672 15.0848C6.44672 14.7906 6.2114 14.5357 5.89765 14.5357Z" fill="#FAFAFA"/>
</svg>
