<svg width="21" height="15" viewBox="0 0 21 15" fill="none" xmlns="http://www.w3.org/2000/svg">
<path d="M1.30103 2.4428H19.2244C19.2636 2.4428 19.2832 2.42319 19.2832 2.40358V2.08982C19.2832 2.07021 19.2636 2.0506 19.2244 2.0506C18.5969 2.0506 17.9694 1.22699 17.9694 0.481816C17.9694 0.462206 17.9497 0.442596 17.9105 0.442596H2.61489C2.57567 0.442596 2.55606 0.462206 2.55606 0.501425C2.55606 1.2466 1.92854 2.0506 1.30103 2.0506C1.26181 2.0506 1.2422 2.07021 1.2422 2.10943V2.38397C1.2422 2.42319 1.26181 2.4428 1.30103 2.4428ZM20.1264 3.79587C19.4205 3.79587 18.8518 3.52133 18.8518 2.89382C18.8518 2.8546 18.8322 2.83499 18.793 2.83499H1.65401C1.65401 3.50173 1.10493 3.79587 0.398978 3.79587C0.359759 3.79587 0.340149 3.83509 0.340149 3.87431V4.12924C0.340149 4.14885 0.359759 4.18807 0.398978 4.18807H20.1264C20.1657 4.18807 20.1853 4.14885 20.1853 4.12924V3.87431C20.1853 3.83509 20.1657 3.79587 20.1264 3.79587ZM18.6165 4.56065H1.88932C1.86971 4.56065 1.8501 4.59987 1.8501 4.61948V13.4243C1.8501 13.4439 1.86971 13.4831 1.88932 13.4831H5.30143V13.0909H5.98777V12.4046H4.57587V11.326C4.57587 11.1299 4.67391 10.9731 4.83079 10.875V9.67881H4.57587V8.60027C4.57587 8.30613 4.83079 8.0512 5.14455 8.0512C5.47792 8.0512 5.73284 8.30613 5.73284 8.60027V9.44349C6.02699 9.38466 6.22309 9.22779 6.22309 8.93364V8.79637H6.45841V8.60027C6.45841 8.28652 6.73294 8.0512 7.0467 8.0512C7.36046 8.0512 7.61538 8.28652 7.61538 8.60027V8.79637H8.49782V8.18847H11.9884V8.79637H12.91V8.60027C12.91 8.28652 13.165 8.0512 13.4787 8.0512C13.7925 8.0512 14.067 8.28652 14.067 8.60027V8.79637H14.3023V8.91403C14.3023 9.20818 14.4984 9.40427 14.7926 9.4631V8.60027C14.7926 8.30613 15.0475 8.0512 15.3809 8.0512C15.6946 8.0512 15.9495 8.30613 15.9495 8.60027V9.67881H15.577V10.8162C15.7927 10.8946 15.9495 11.0907 15.9495 11.326V12.4046H14.5376V13.0909H15.1848V13.4831H18.6165C18.6361 13.4831 18.6557 13.4635 18.6753 13.4635V4.61948C18.6753 4.59987 18.6557 4.56065 18.6165 4.56065ZM3.83069 6.99227H2.67371V5.91373C2.67371 5.61958 2.94825 5.36466 3.26201 5.36466C3.57577 5.36466 3.83069 5.61958 3.83069 5.91373V6.99227ZM5.73284 6.99227H4.57587V5.91373C4.57587 5.61958 4.83079 5.36466 5.14455 5.36466C5.47792 5.36466 5.73284 5.61958 5.73284 5.91373V6.99227ZM7.61538 6.99227H6.45841V5.91373C6.45841 5.61958 6.73294 5.36466 7.0467 5.36466C7.36046 5.36466 7.61538 5.61958 7.61538 5.91373V6.99227ZM14.067 6.99227H12.91V5.91373C12.91 5.61958 13.165 5.36466 13.4787 5.36466C13.7925 5.36466 14.067 5.61958 14.067 5.91373V6.99227ZM15.9495 6.99227H14.7926V5.91373C14.7926 5.61958 15.0475 5.36466 15.3809 5.36466C15.6946 5.36466 15.9495 5.61958 15.9495 5.91373V6.99227ZM17.8321 6.99227H16.6751V5.91373C16.6751 5.61958 16.9496 5.36466 17.2634 5.36466C17.5772 5.36466 17.8321 5.61958 17.8321 5.91373V6.99227ZM11.9884 6.99227H8.49782V5.48231H11.9884V6.99227ZM3.83069 9.67881H2.67371V8.60027C2.67371 8.30613 2.94825 8.0512 3.26201 8.0512C3.57577 8.0512 3.83069 8.30613 3.83069 8.60027V9.67881ZM17.8321 9.67881H16.6751V8.60027C16.6751 8.30613 16.9496 8.0512 17.2634 8.0512C17.5772 8.0512 17.8321 8.30613 17.8321 8.60027V9.67881ZM14.7926 13.8753V13.4831H14.1454V11.4045H15.2828V11.0123C14.8122 11.0123 14.3808 10.7966 14.2043 10.3259H15.2828V9.93374C14.6749 9.93374 13.969 9.69842 13.969 9.07091H6.55645C6.55645 9.69842 5.83089 9.93374 5.22299 9.93374V10.3259H6.30153C6.14465 10.7966 5.71323 11.0123 5.22299 11.0123V11.4045H6.37997V13.4831H5.69362V13.8753H5.16416V14.2871H15.322V13.8753H14.7926ZM3.83069 12.4046H2.67371V11.326C2.67371 11.0319 2.94825 10.777 3.26201 10.777C3.57577 10.777 3.83069 11.0319 3.83069 11.326V12.4046ZM17.8321 12.4046H16.6751V11.326C16.6751 11.0319 16.9496 10.777 17.2634 10.777C17.5772 10.777 17.8321 11.0319 17.8321 11.326V12.4046ZM6.98787 12.6203C6.98787 12.1104 7.38007 11.7182 7.87031 11.7182C8.36056 11.7182 8.75275 12.1104 8.75275 12.6203V13.4831H6.98787V12.6203ZM10.2627 11.7182C10.753 11.7182 11.1451 12.1104 11.1451 12.6203V13.4831H9.38027V12.6203C9.38027 12.1104 9.77246 11.7182 10.2627 11.7182ZM12.6551 11.7182C13.1453 11.7182 13.5375 12.1104 13.5375 12.6203V13.4831H11.7727V12.6203C11.7727 12.1104 12.1649 11.7182 12.6551 11.7182Z" fill="white"/>
</svg>
