<svg width="9" height="13" viewBox="0 0 9 13" fill="none" xmlns="http://www.w3.org/2000/svg">
<path d="M4.43667 0.374023C2.33842 0.374023 0.651978 2.02125 0.651978 4.29598C0.651978 6.06087 1.94622 8.10028 3.18164 9.55141L3.37774 10.6692L3.47579 12.3556H5.39755L5.4956 10.6692L5.6917 9.55141C6.92711 8.10028 8.22136 6.06087 8.22136 4.29598C8.22136 2.02125 6.53492 0.374023 4.43667 0.374023ZM4.43667 0.76622C5.00535 1.35451 5.27989 2.88408 5.27989 4.29598C5.27989 5.76672 4.94652 7.82575 4.65238 9.15921H4.22096C3.92681 7.82575 3.59345 5.76672 3.59345 4.29598C3.59345 2.88408 3.86798 1.35451 4.43667 0.76622ZM1.12261 4.29598C1.12261 2.66837 2.02466 1.3349 3.47579 0.864269C2.71101 1.57022 2.20115 2.58993 2.20115 4.29598C2.20115 6.02165 2.94632 7.66887 3.65228 9.15921H3.31891C2.37764 7.84536 1.12261 5.98243 1.12261 4.29598ZM5.55443 9.15921H5.22106C5.92701 7.66887 6.67219 6.02165 6.67219 4.29598C6.67219 2.58993 6.16233 1.57022 5.39755 0.864269C6.84867 1.3349 7.75072 2.66837 7.75072 4.29598C7.75072 5.98243 6.4957 7.84536 5.55443 9.15921ZM5.1034 10.6692H3.76994L3.57384 9.55141H5.2995L5.1034 10.6692Z" fill="white"/>
</svg>
