<?xml version="1.0" encoding="utf-8"?>
<!-- Generator: Adobe Illustrator 23.0.6, SVG Export Plug-In . SVG Version: 6.00 Build 0)  -->
<svg version="1.1" id="圖層_1" xmlns="http://www.w3.org/2000/svg" xmlns:xlink="http://www.w3.org/1999/xlink" x="0px" y="0px"
	 viewBox="0 0 369.8 131.6" style="enable-background:new 0 0 369.8 131.6;" xml:space="preserve">
<style type="text/css">
	.st0{fill:#FFFFFF;}
	.st1{fill:#FFFFFF;stroke:#FFFFFF;stroke-width:0.8512;stroke-miterlimit:10;}
	.st2{fill:#FFFFFF;stroke:#FFFFFF;stroke-miterlimit:10;}
</style>
<g>
	<path class="st0" d="M22.3,69.1c-0.7,0.6-1.2,1-1.7,1.4c-0.4,0.4-1,0.7-1.8,1c-0.8,0.3-1.5,0.5-2.4,0.6c-1.1,0.1-2,0.1-2.5-0.1
		c-0.6-0.2-1-0.5-1.1-0.9c-0.1-0.4-0.2-1.1-0.1-2.2c0.1-0.9,0.3-2.2,0.8-3.8c0.5-1.7,1.1-3.5,1.8-5.6c0.7-2,1.1-3.2,1.2-3.6
		c0.8-2.5,1.5-4,2.2-4.5c0.6-0.5,1.1-0.5,1.4,0.1c0.3,0.6,0.2,1.1-0.2,1.5c-1.1,2.8-2.5,7-4.4,12.5c0,0.2-0.1,0.4-0.2,0.7
		c-0.2,0.7-0.3,1.2-0.4,1.5c-0.1,0.3-0.1,0.6-0.1,1c0,0.4,0.1,0.6,0.2,0.8c0.2,0.2,0.4,0.3,0.8,0.4c0.9-0.2,1.7-0.4,2.4-0.6
		c0.7-0.3,1.4-0.6,2.1-1.1c0.7-0.5,1.2-0.9,1.6-1.2s0.9-0.9,1.7-1.7c0.8-0.8,1.3-1.4,1.6-1.7c0.1-0.1,0.2-0.3,0.5-0.6
		c0.3-0.3,0.4-0.5,0.5-0.7c0.1-0.1,0.2-0.4,0.2-0.7c0.1-0.3,0-0.6-0.1-1c-0.4-0.9-0.2-1.6,0.6-2.1c0.8-0.4,1.5-0.3,2.2,0.5
		c3.1,2.3,5.3,3.7,6.4,4.1c0.9,0.4,1.2,1,0.9,2c-0.3,0.9-0.8,1.2-1.5,1.1c-0.3-0.1-0.6-0.3-0.8-0.6c-0.3-0.3-0.6-0.6-1.1-0.9
		c-0.4-0.3-0.9-0.6-1.5-1c-0.6-0.4-1-0.6-1.2-0.8c-0.8-0.5-1.4-0.8-1.8-0.7c-0.4,0-0.7,0.4-1,1.1c-0.2,0.5-0.4,0.7-0.5,0.7
		c-0.2,0.1-0.8,0.8-1.8,2c-1.1,1.3-1.7,1.9-1.7,1.9C23.4,68.1,22.9,68.5,22.3,69.1z M23.3,89c-0.1,1-0.3,1.6-0.6,2
		c-0.5,0.5-1.1,0.7-1.6,0.4c-0.6-0.3-0.8-0.9-0.6-1.9c-0.1-0.9-0.1-2.4-0.2-4.5s-0.2-3.9-0.3-5.3l-0.3-2.8l0.5-1.3
		c0.2-0.5,0.4-0.8,0.5-1.1c0.1-0.2,0.3-0.4,0.6-0.5c0.3-0.1,0.6-0.1,0.9,0.2c0.2,0.1,0.3,0.7,0.2,1.7c-0.1,1-0.1,1.7-0.1,1.9
		c0.1,0.5,0.2,1,0.1,1.6c0,0.6,0.1,0.9,0.3,0.8c0.1,0,0.2-0.1,0.3-0.4c0.7-1.1,1.7-2.1,3-3c1.3-0.9,2.8-1.5,4.5-1.6
		c0.9-0.1,1.8,0,2.7,0.3c0.9,0.3,1.5,0.6,1.8,1.1c0.1,0.2,0.2,0.4,0.2,0.8c0,0.4,0,0.7,0,0.9c0,0.3-0.1,0.6-0.2,1s-0.3,0.8-0.4,1.1
		c-0.1,0.3-0.3,0.6-0.5,1.1c-0.2,0.4-0.4,0.8-0.5,1c-0.1,0.2-0.3,0.6-0.5,0.9c-0.2,0.4-0.3,0.6-0.4,0.8c-0.5,0.7-0.6,1-0.1,1
		c0.2,0,0.6-0.1,1.2-0.2c2.3-0.7,4.2-1.2,5.6-1.4c0.6-0.1,1.1-0.1,1.3,0s0.4,0.4,0.5,0.9c0.2,0.7,0.2,1.2,0,1.5
		c-0.2,0.3-0.8,0.4-1.6,0.4c-1.2,0.1-2.1,0.2-2.8,0.3c-0.7,0.1-1.6,0.3-2.7,0.7c-1.1,0.4-2,0.7-2.7,0.9c-0.6,0.2-1.5,0.6-2.6,1
		c-1.1,0.4-1.9,0.8-2.5,1c-0.7,0.4-1.2,0.3-1.6-0.5c-0.4-0.8-0.4-1.4,0.1-1.9c0.4-0.4,1.1-0.8,2-1c1-0.2,2-1.2,3.2-3.1
		c1.2-1.9,2-3.4,2.5-4.8c0.3-0.8,0.3-1.3,0.1-1.5c-0.2-0.2-0.9-0.3-1.9-0.2c-1,0.2-1.9,0.4-2.5,0.8c-0.7,0.4-1.2,0.7-1.5,1
		c-0.3,0.3-0.8,0.9-1.5,1.8c-1.4,2-2,3.6-1.8,5C23.3,87,23.4,88,23.3,89z"/>
	<path class="st0" d="M48.5,71.7c-0.2,0.2-0.4,0.5-0.8,0.8c-1,0.9-1.9,1.2-2.4,0.9c-0.2-0.1-0.4-0.4-0.5-0.9c-0.1-0.5-0.1-0.9,0-1.3
		c0.1-0.4,0.4-0.5,0.8-0.4c0.4,0,0.7-0.1,1-0.2s0.6-0.4,1-0.8c0.3-0.4,0.6-0.6,0.8-0.7c0.2-0.1,0.6-0.5,1.2-1.2
		c0.6-0.6,0.9-1,1.1-1.1c1-0.8,1.7-1,2-0.6c0.4,0.5,0.4,1-0.1,1.3c-0.2,0.1-0.8,0.7-1.6,1.6c-0.8,1-1.4,1.5-1.6,1.7
		C49,71.3,48.7,71.5,48.5,71.7z M46.3,53.5c0.2,0.1,0.6,0.2,1.3,0.6s1.1,0.5,1.3,0.5c1.3,0.3,2,0.5,2.3,0.7c0.3,0.2,0.4,0.5,0.5,0.9
		c0.1,0.4,0,0.7-0.4,0.9s-0.9,0.1-1.6-0.1c-1-0.4-2.2-0.6-3.7-0.6c-0.6-0.1-1-0.2-1.1-0.3c-0.1-0.2-0.1-0.4,0.2-0.8
		C45.5,54.3,45.9,53.7,46.3,53.5z M54.6,74.3c0.2-0.2,0.5-0.1,0.9,0.1c0.3,0.3,0.4,1.1,0.2,2.3s-0.3,2.2-0.5,2.9
		c-0.2,0.5-0.4,1.1-0.6,1.8c-0.2,0.7-0.3,1.1-0.4,1.2S54,83,53.7,83.5c-0.3,0.5-0.6,1-0.9,1.4c-0.3,0.4-0.8,1.1-1.5,2.2
		c-0.4,0.6-0.8,1-1,1.1c-0.4,0.2-0.8,0.1-1.2-0.2c-0.4-0.3-0.6-0.7-0.6-1.2c0-0.3,0-0.4,0.1-0.5c0.1-0.1,0.3-0.2,0.6-0.3
		c0.3-0.2,0.6-0.6,0.9-1.2c0.3-0.6,0.6-1,0.8-1.3c0.5-0.7,1.1-2,1.9-4c0.8-1.9,1.2-3.4,1.3-4.3C54.3,74.8,54.4,74.4,54.6,74.3z
		 M63,57.5c0.3-0.2,0.5-0.5,0.6-0.8c0.1-0.3,0.4-0.5,0.7-0.8c0.3-0.3,0.6-0.4,0.8-0.5c0.3,0,0.6,0.1,0.8,0.5
		c0.2,0.4,0.2,0.7,0.1,1.1c-0.1,0.3-0.3,0.6-0.4,0.7s-0.3,0.4-0.5,0.6c-0.2,0.2-0.4,0.4-0.4,0.4c-0.4,0.6-1,1-1.8,1.3
		c-0.8,0.3-1.5,0.1-2.1-0.4c-0.4-0.3-0.5-0.6-0.5-1s0.1-1.1,0.4-2.1c0.3-1,0.4-1.6,0.3-1.7c-0.1,0-0.4,0.1-0.9,0.3
		c-0.7,0.4-1.2,0.5-1.6,0.1s-0.4-0.9-0.1-1.5c1.2-2.4,1.7-4.2,1.7-5.2c0-0.7,0-1.1,0.1-1.2c0.1-0.1,0.4-0.3,0.9-0.5
		c0.2,0,0.3,0.1,0.4,0.1c0.1,0.1,0.1,0.4,0.2,0.9c0.1,0.4,0.2,0.8,0.1,1.3s-0.2,1.1-0.4,1.8c-0.2,0.7-0.3,1.1-0.4,1.3
		c0.1,0,0.3-0.1,0.8-0.3c1.2-0.6,2-0.5,2.4,0.3c0.2,0.5,0,1.1-0.6,1.9c-0.2,0.3-0.5,0.9-0.8,1.8c-0.3,0.9-0.5,1.4-0.5,1.7
		C62.1,57.9,62.4,57.9,63,57.5z M59.7,63c0.3-0.4,0.6-0.5,0.9-0.1c0.3,0.4,0.6,0.9,1,1.7c0.1,0.4,0.3,1.3,0.4,2.7
		c0.1,1.4,0.2,2.3,0.1,2.6c-0.1,0.4-0.4,0.6-0.8,0.7c-0.4,0.1-0.7,0-0.9-0.3C59.9,68.5,59.7,66,59.7,63z M62.9,65.4
		c-0.2-0.8-0.3-1.6-0.4-2.3c-0.1-0.7-0.1-1,0.1-1c0.3-0.3,0.6-0.4,0.8-0.3c0.2,0.1,0.5,0.6,0.8,1.5c0.7,2.2,1,3.6,0.9,4
		c-0.1,0.7-0.6,0.9-1.5,0.6c-0.3-0.1-0.5-0.5-0.6-1.1C63.2,66.7,63.1,66.3,62.9,65.4z M71.5,38.4c0,0.3-0.1,0.6-0.5,0.8
		c-0.3,0.2-1,0.5-2.1,0.9c-1.1,0.4-1.9,0.5-2.3,0.6c-0.4,0-0.8-0.1-1.2-0.3c-0.9-0.6-0.7-1.2,0.6-1.8c0.4-0.2,1-0.4,1.8-0.6
		C70.2,37.3,71.4,37.4,71.5,38.4z M71.4,45.9c-0.4,0.4-1,0.7-1.7,1.1c-0.7,0.4-1.2,0.6-1.4,0.9c-0.5,0.5-1.1,0.7-1.7,0.8
		c-0.6,0.1-1.2-0.1-1.6-0.5c-0.2-0.3-0.2-0.5-0.1-0.7s0.6-0.5,1.2-0.9c0.1-0.1,1.5-0.9,4.1-2.6c0.3-0.2,0.7-0.2,1-0.1
		s0.5,0.4,0.5,0.7C72,45.1,71.8,45.5,71.4,45.9z M65.9,61.2c0.4,0.1,0.8,0.3,1.1,0.5c0.6,0.5,1,1.5,1.1,3.2c0.1,0.9,0.1,1.6,0.1,1.9
		s-0.2,0.6-0.5,0.7c-0.3,0.3-0.6,0.2-1-0.3c-0.4-0.4-0.5-0.9-0.3-1.3c0.1-0.3,0.1-0.9-0.2-1.7c-0.3-0.8-0.5-1.3-0.7-1.6
		c-0.2-0.2-0.3-0.5-0.4-0.8c-0.1-0.3-0.1-0.5,0-0.6C65.3,61.2,65.5,61.1,65.9,61.2z M71.4,50c-0.2,0.2-0.4,0.5-0.8,0.7
		c-0.4,0.3-0.6,0.5-0.8,0.7c-0.5,0.4-1,0.7-1.4,0.9c-0.4,0.2-0.8,0.3-1,0.2c-0.3-0.1-0.4-0.3-0.5-0.6s0.1-0.6,0.5-0.8
		c0.2-0.1,0.6-0.6,1.2-1.3c0.6-0.7,1-1.1,1.3-1.2c0.4-0.2,0.8-0.3,1.3-0.2c0.4,0.1,0.6,0.3,0.7,0.6C71.7,49.4,71.6,49.8,71.4,50z
		 M70.4,53.9c-0.2,0.1-0.4,0.1-0.5,0.2c-0.1,0.1-0.3,0.2-0.4,0.3c-0.7,0.8-1.1,0.8-1.3,0c0-0.1,0-0.2,0-0.2c0-0.1,0.1-0.2,0.2-0.3
		c0.1-0.1,0.2-0.2,0.3-0.2c0.1-0.1,0.2-0.2,0.4-0.3c0.1-0.1,0.3-0.2,0.4-0.3c0.1-0.1,0.2-0.1,0.3-0.2s0.2-0.1,0.2-0.1
		c0.2-0.2,0.4-0.3,0.6-0.2c0.2,0.1,0.3,0.3,0.3,0.5s0,0.4-0.1,0.5C70.7,53.8,70.6,53.8,70.4,53.9z M69.3,62.1
		c0.1-0.6,0.2-1.2,0.1-1.9c0-2,0.2-3.3,0.6-3.7c0.3-0.3,0.7-0.4,1.3-0.4l0.1,1c0,0.6,0.1,0.9,0.2,0.9c0.1,0.1,0.3-0.1,0.7-0.4
		c0.7-0.7,1.5-0.7,2.2-0.1c0.7,0.6,1,1.5,0.7,2.6c-0.1,0.6-0.2,1-0.2,1.1c0,0.3-0.3,0.9-1,1.7c-0.6,0.8-1.1,1.3-1.4,1.5
		c-0.3,0.2-0.8,0.3-1.6,0.4c-1.2,0.1-1.8-0.2-1.9-0.7C69.2,63.4,69.2,62.7,69.3,62.1z M73,61.2c0.4-0.9,0.5-1.5,0.4-1.8
		c-0.2-0.4-0.6,0.1-1.2,1.6c-0.4,1.1-0.5,1.7-0.2,1.6C72.2,62.6,72.6,62.1,73,61.2z M82.9,74.1c0.2,0,0.5,0.1,0.9,0.2
		c0.4,0.2,0.8,0.5,1.2,1c0.4,0.4,0.7,0.8,0.7,1c0.1,0.2,0.2,0.4,0.3,0.7c0.1,0.3,0.2,0.5,0.3,0.6c0,0.1,0.1,0.3,0.1,0.6
		c0.1,0.2,0.1,0.5,0.1,0.7c0,0.2,0,0.6-0.1,1c0,0.4-0.1,0.9-0.1,1.5c0,0.4-0.1,0.8-0.2,1.1C86.1,83,86,83.2,86,83.4
		c-0.1,0.5-0.6,1.5-1.5,2.8c-0.9,1.3-1.7,2.2-2.3,2.7c-0.6,0.4-1.4,0.7-2.6,0.9c-0.7,0.2-1.4,0.3-1.9,0.3c-0.5,0-1-0.1-1.3-0.3
		c-0.4-0.2-0.7-0.4-0.8-0.6c-0.2-0.1-0.4-0.5-0.8-1c-0.4-0.5-0.6-0.9-0.8-1.1c-0.6-0.8-0.6-1.3-0.2-1.6c0.4-0.3,0.8-0.1,1.2,0.6
		c0.3,0.3,0.5,0.5,0.6,0.6c0.1,0.1,0.3,0.1,0.6,0.1c0.8-0.1,1.4,0,1.7,0.4c0.1,0.2,0.4,0.3,0.9,0.3c0.4,0,0.8,0,1.2-0.1
		c0.6-0.2,1.3-0.8,2.2-1.9c0.9-1.1,1.4-1.9,1.5-2.6c0.8-2.4,0.9-4.1,0.3-5.1c-0.3-0.6-0.6-1-0.9-1.2c-0.3-0.1-1-0.2-2-0.1
		c-0.6,0.1-1.1,0.1-1.3,0.1c-0.2,0-0.5,0-0.8-0.1s-0.5-0.2-0.6-0.5c-0.1-0.2-0.2-0.5-0.2-1c0-0.3,0.1-1,0.4-2.1
		c0.3-1,0.5-1.9,0.8-2.5c0.2-0.5,0.2-0.7,0.1-0.8c-0.1,0-0.4,0.1-0.8,0.2c-0.4,0.2-0.7,0.2-0.9,0c-0.5-0.2-0.7-0.5-0.6-1
		c0.1-0.5,0.5-0.8,1.1-1.2c1.2-0.6,2-1,2.4-1c0.5-0.2,1-0.1,1.3,0.5s0.3,1,0,1.4c-0.3,0.4-0.7,1.4-1.2,3c-0.5,1.6-0.7,2.5-0.5,2.8
		c0.1,0.1,0.5,0.1,1.5-0.1C82.3,74.2,82.7,74.1,82.9,74.1z M79.3,44.7c0.6-1.6,1-2.9,1.5-3.9c0.1-0.2,0.2-0.7,0.4-1.5
		c0.1-0.8,0.2-1.3,0.2-1.4c0.1-0.2,0.3-0.2,0.6-0.2c0.3,0,0.5,0.1,0.7,0.3c0.1,0.5,0.2,0.8,0.3,1c0.1,0.2,0.1,0.5,0,0.9
		c-0.1,0.4-0.1,0.7-0.2,0.9c-0.1,0.2-0.2,0.5-0.3,0.9c-0.1,0.4-0.3,0.8-0.3,1c-0.4,1.2-0.6,1.8-0.8,2.1c-0.1,0.3-0.2,0.6-0.1,0.7
		c0.1,0.2,0.2,0.2,0.4,0.1c0.2-0.1,0.4-0.3,0.5-0.5c0.5-0.7,1-1.1,1.6-1.2c0.6-0.1,1.1,0.1,1.6,0.6c0.1,0.2,0.1,0.4-0.1,0.8
		c-0.2,0.4-0.5,0.7-0.8,1.1c-0.3,0.4-0.5,0.7-0.6,0.8c0,0.2-0.1,0.5-0.3,0.7c-0.3,0.4-0.3,0.6-0.2,0.7c0,0,0.1,0,0.2-0.1
		c0.2-0.1,0.5-0.4,1-0.9c0.7-0.7,1.3-0.9,1.7-0.6c0.5,0.3,0.5,0.8,0,1.4c-0.5,0.7-0.9,1.2-1.1,1.5s-0.7,0.7-1.3,1.3
		c-0.6,0.5-1.2,0.8-1.7,0.8c-0.6,0-1.1-0.2-1.3-0.8c-0.2-0.5-0.1-1.2,0.3-2c0.3-0.6,0.4-0.9,0.3-1s-0.3-0.1-0.8,0.1
		c-0.5,0.2-0.9,0.2-1.3,0c-0.4-0.2-0.6-0.5-0.8-0.9C78.5,47.3,78.8,46.3,79.3,44.7z M81.4,53.4c0.2-0.2,0.5-0.1,0.9,0.2
		c0.6,0.3,1,1.1,1.2,2.4c0.2,1.3,0.2,2.4,0,3.3c0,0.1,0,0.5-0.1,1.3c0,0.8-0.1,1.2-0.3,1.3c-0.4,0.4-0.8,0.5-1.1,0.4
		c-0.4-0.1-0.6-0.4-0.7-0.9c-0.1-0.4-0.1-0.9,0-1.4c0.1-0.5,0.1-1.4,0.1-2.7c0-1.3,0-2.3-0.1-3C81.1,53.9,81.2,53.6,81.4,53.4z
		 M86.2,55.1c0.2,0.4,0.3,1,0.4,1.7c0.1,0.9,0.1,1.6,0,2c0,0.4-0.2,0.7-0.5,0.8c-0.4,0.4-0.8,0.4-1.2,0.1c-0.3-0.3-0.5-0.8-0.4-1.3
		c0-0.2,0-0.8,0-1.6c-0.1-0.8-0.1-1.6-0.1-2.3c0-0.7,0-1,0.2-1c0.2-0.3,0.5-0.3,0.7-0.2c0.3,0.2,0.4,0.5,0.5,0.9
		C85.8,54.4,86,54.8,86.2,55.1z M88.5,51.3c0.2-0.1,0.4,0,0.6,0.1c0.3,0.1,0.5,0.7,0.7,1.9c0.2,1.1,0.3,2.5,0.3,4
		c0,0.3-0.2,0.8-0.7,1.6s-0.8,1.3-1,1.5c-0.6,0.3-1,0.3-1.2,0.1c-0.2-0.2,0-0.6,0.4-1.2c0.4-0.7,0.5-2.3,0.3-5
		c-0.1-1.5-0.1-2.5,0-2.8C88.1,51.5,88.3,51.4,88.5,51.3z"/>
	<path class="st0" d="M111.4,51.4c0.1,0,0.2-0.2,0.3-0.5c0.1-0.3,0.3-0.5,0.7-0.6c0.4-0.1,0.6-0.1,0.8,0c0.2,0.1,0.3,0.4,0.4,0.8
		c0.1,0.5,0.1,0.9-0.1,1.2c-0.2,0.3-0.6,0.8-1.2,1.3c-0.4,0.4-0.7,0.7-0.8,0.9s-0.3,0.6-0.5,1.2c-0.3,1.1-0.6,2.3-0.9,3.7
		c0,0,0.6-0.3,1.5-0.9c1-0.6,1.6-1.1,1.9-1.4c0.5-0.5,1.1-0.7,1.6-0.7c0.5,0,0.8,0.3,0.9,0.8c0.1,0.7-0.6,1.5-2,2.5
		c-0.9,0.6-1.3,1-1.3,1.3c0,0.5,0,1.2,0.1,2.3c0.1,1.1,0.2,1.6,0.3,1.7c0.2,0,0.4-0.1,0.6-0.3c0.3-0.2,0.6-0.5,1-0.8
		c0.4-0.3,0.7-0.6,1-0.9c0.3-0.3,0.6-0.6,1-1c0.4-0.4,0.6-0.6,0.8-0.8c0.3-0.3,0.8-0.8,1.2-1.5c0.5-0.7,1.1-1.3,1.8-1.6
		c0.4-0.2,0.6-0.4,0.7-0.4c0.1,0,0.3,0,0.4,0.1c0.3,0.3,0.5,0.6,0.3,1.2c-0.1,0.5-0.4,1.1-1,1.7c-0.3,0.3-0.9,0.8-1.6,1.5
		c-0.7,0.7-1.4,1.4-2.1,2.2c-0.4,0.4-1,0.9-1.8,1.6c-0.9,0.7-1.6,1.4-2.2,2.1c-0.6,0.7-1,1.5-1.2,2.3c-0.3,2-1.2,4.2-2.5,6.6
		c-1.3,2.4-2.7,3.7-4.2,4c-0.3,0-0.5,0-0.6,0c-0.1-0.1-0.3-0.2-0.5-0.6l-0.4-0.6c0.3-0.4,0.6-0.7,0.9-0.8c1-0.4,2.1-1.6,3.3-3.7
		c0.3-0.5,0.6-1.4,1-2.6c0.4-1.3,0.6-1.9,0.5-2c-0.8,0.3-1.6,0.7-2.5,1.2c-0.9,0.5-2.1,1.2-3.5,2s-2.2,1.3-2.4,1.4
		c-0.8,0.5-1.4,0.5-1.9,0.1c-1.2-0.9-0.6-1.8,1.8-2.8c0.6-0.2,1.6-0.7,2.9-1.4c1.3-0.7,2.1-1.1,2.4-1.2c0.2,0,0.4-0.2,0.7-0.4
		c0.3-0.3,0.5-0.4,0.5-0.5c0.1,0,0.5-0.2,1-0.6c0.5-0.3,1-0.7,1.3-0.9c0.3-0.2,0.6-0.5,0.6-0.8c0.1-0.3,0.1-0.9,0.2-1.9
		c0-1.1-0.1-1.8-0.2-2.1c-0.1-0.2-0.6-0.2-1.3,0.2c-2.4,1-3.8,1.3-4.1,1c-0.5-0.5-0.7-0.9-0.6-1.4c0.2-0.5,0.6-0.9,1.3-1.1
		c0.5-0.2,0.9-0.4,1.3-0.8c0.3-0.4,0.7-1,1.1-1.9c0.2-0.4,0.3-0.8,0.4-1.3c0.1-0.5,0-0.8,0-0.9c-0.1-0.1-0.5,0-1.1,0.3
		c-1.1,0.5-1.9,0.6-2.2,0.3c-0.6-0.4-0.7-0.8-0.5-1.3c0.2-0.5,0.8-0.9,1.6-1.1c0.4-0.1,1-0.3,1.5-0.7c0.6-0.3,1-0.6,1.2-0.8
		c0.3-0.3,0.2-1.2-0.2-2.5c-0.1-0.4-0.3-0.6-0.5-0.6c-0.3,0-0.7,0.1-1.5,0.4c-1.3,0.5-2.3,0.8-2.9,0.8c-0.6,0-0.9-0.3-0.9-0.9
		c0-0.3,0.1-0.7,0.3-1c0.3-0.3,0.6-0.6,1.1-1c0.4-0.3,0.7-0.6,0.9-0.8l0.6-0.7l-0.4-1c-0.2-0.8-0.7-1.4-1.5-2
		c-0.8-0.6-1.6-0.9-2.3-0.9c-0.3,0-0.5-0.1-0.6-0.3c-0.1-0.2-0.3-0.5-0.4-1.1c-0.1-0.5-0.1-0.9,0-1.1s0.3-0.4,0.7-0.6
		c0.3-0.1,0.7-0.1,1,0.1c0.3,0.2,1,0.6,2,1.4c1.1,0.9,1.9,1.6,2.2,2.2c0.3,0.5,0.6,0.8,0.8,0.8c0.2,0,0.4-0.2,0.7-0.7
		c1.6-2.6,2.4-5.1,2.6-7.5c0.1-1.2,0.1-1.9,0.2-2.2c0.1-0.2,0.3-0.4,0.7-0.5c0.4-0.1,0.6,0,0.9,0.2c0.2,0.2,0.3,0.3,0.4,0.5
		c0,0.1,0,0.6,0,1.3c-0.1,3.2-1.4,6.5-3.7,10c-0.5,0.8-0.7,1.2-0.6,1.3c0.1,0.1,0.6-0.1,1.5-0.6c0.3-0.1,1-0.4,2.1-1
		c1.1-0.6,1.9-0.9,2.5-1c0.6,0.1,0.7,0.6,0.5,1.3c-0.2,0.8-0.6,1.3-1.1,1.7c-0.5,0.4-1,0.6-1.6,0.7c-0.5,0.1-0.9,0.3-1.3,0.6
		c-0.3,0.3-0.4,0.8-0.3,1.4C111.1,51,111.2,51.4,111.4,51.4z M127,72.2c3.2,0.9,5.5,1.5,6.9,1.9c0.3,0,0.9,0.2,1.7,0.6
		c0.9,0.4,1.5,0.6,1.8,0.7c0.3,0.1,1.2,0.3,2.6,0.7s2.2,0.6,2.4,0.7c0.5,0.2,0.8,0.5,1,1.1c0.1,0.6,0,1-0.5,1.3
		c-0.2,0.2-0.5,0.3-0.9,0.1c-0.4-0.1-0.9-0.3-1.4-0.6c-0.5-0.3-0.8-0.4-0.9-0.5c-1-0.3-3.5-1-7.5-2.1c-3.9-1.1-6.9-2-8.8-2.6
		c-0.6-0.2-1.4-0.4-2.4-0.6c-2.4-0.4-3.9-1-4.4-1.7c-0.3-0.5-0.1-0.8,0.6-1.1c0.7-0.2,1.5-0.2,2.5,0.1
		C121.3,70.6,123.8,71.3,127,72.2z"/>
	<path class="st0" d="M143.3,45.4c-0.1-1.5-0.1-2.7-0.1-3.5c-0.1-0.6,0.1-1.3,0.7-2.1c0.4-0.6,0.4-0.8,0.1-0.8
		c-0.1,0-0.4,0.2-1.1,0.5c-0.7,0.3-1.2,0.5-1.4,0.5c-0.2,0-0.4,0-0.6-0.1c-0.5-0.6-0.7-1.2-0.5-1.8c0.2-0.6,0.8-0.9,1.7-0.9
		c0.7-0.1,1.3-0.3,1.9-0.6c0.6-0.3,1.5-0.8,2.6-1.6c1.3-0.9,2.1-1.4,2.3-1.4s0.4,0,0.6,0.2c0.2,0.2,0.3,0.4,0.4,0.5
		c0.1,0.3-0.1,0.7-0.6,1.1c-0.5,0.4-1.4,1.1-2.8,2.1c-0.9,0.6-1.4,1-1.4,1.2c0,0,0.1,0.1,0.2,0.1c0.3,0,0.3,0.6,0.2,1.6
		c-0.2,1.4-0.2,2.1,0,2.1c0.1,0,0.3-0.1,0.5-0.4c0.6-0.5,1.4-1.1,2.4-1.6s1.8-0.8,2.5-0.8c0.9,0,1.5,0.2,1.7,0.7
		c0.3,0.5,0.6,1.8,0.9,3.9c0.1,0.4,0.2,1,0.3,1.8c0.1,0.8,0.2,1.2,0.2,1.3c0.1,0,0.2-0.2,0.3-0.5c0.1-0.3,0.3-0.6,0.5-0.8
		s0.4-0.3,0.7-0.2c0.2,0.1,0.5,0.4,0.9,0.9c0.4,0.5,0.7,0.8,0.8,0.8c0.6,0.5,0.9,1,0.8,1.4c-0.1,0.3,0.1,0.4,0.4,0.3
		c0.2-0.1,0.4-0.2,0.6-0.3c0.3-0.2,0.8-0.5,1.4-0.8c0.6-0.3,1.1-0.6,1.3-0.7c1-0.5,1.5-0.5,1.8,0c0.1,0.4,0.1,0.8-0.2,1.1
		s-0.9,0.8-1.8,1.4c-0.1,0.1-0.2,0.4-0.3,0.9c-0.1,0.4-0.1,0.7-0.2,0.8c-0.1,0.4-0.1,0.9,0,1.7c0.1,0.7,0.2,1.1,0.3,1.1
		c0.1,0,0.6-0.2,1.5-0.8c0.2-0.1,0.5-0.4,1-0.7c0.5-0.3,0.7-0.5,0.9-0.6c0.1-0.1,0.3-0.2,0.6-0.3c0.3-0.1,0.5-0.2,0.6-0.1
		s0.3,0.1,0.5,0.2c0.2,0.1,0.4,0.2,0.5,0.5c0.2,0.2,0.3,0.6,0.5,0.9c0.2,0.7,0.2,1.5-0.1,2.5c-0.2,1-0.6,2-1.1,3
		c-0.3,0.6-0.5,0.9-0.5,1c0,0,0.2,0.2,0.5,0.6c0.3,0.4,0.5,0.6,0.5,0.6c0,0,0,0.1,0,0.1c0.3,0.6,0.6,0.7,1,0.3
		c0.4-0.2,0.9-0.6,1.6-1.2c0.6-0.6,1.3-1.2,1.9-2c0.7-0.7,1.1-1.2,1.4-1.4c0.1-0.1,0.3-0.2,0.5-0.5c0.2-0.3,0.4-0.5,0.5-0.5
		c0.1-0.1,0.4-0.1,0.8,0c0.3,0.3,0.3,0.8-0.1,1.6c-1.4,2.3-3.4,4.4-6,6.3c-0.4,0.3-0.7,0.5-0.8,0.8c-0.1,0.3-0.1,0.8,0,1.4
		c0.2,1,0.4,1.6,0.6,1.9c0.3,0.2,0.8,0.1,1.7-0.3c0.6-0.2,1.5-0.7,2.7-1.4c1.2-0.7,2.3-1.2,3.3-1.4c0.2-0.1,0.4-0.2,0.8-0.3
		c0.3-0.1,0.5-0.2,0.7-0.2c0.1-0.1,0.2-0.2,0.3-0.4c0.1-0.2,0.1-0.4,0-0.8c-0.1-0.5-0.3-0.8-0.6-1.1c-0.6-0.5-0.7-0.9-0.5-1.2
		s0.7-0.4,1.4,0c0.6,0.3,1.1,0.9,1.5,1.9c0.4,1,0.4,1.8,0.2,2.5c-0.2,0.4-0.4,0.8-0.8,1c-0.3,0.2-1,0.5-1.9,0.6
		c-0.7,0.1-1.5,0.4-2.5,0.9c-0.9,0.5-1.8,0.9-2.4,1.3c-0.7,0.4-1.5,0.8-2.4,1.1c-0.9,0.3-1.8,0.4-2.5,0.2c-0.4-0.2-0.7-0.7-1-1.4
		c-0.3-0.7-0.6-1.9-0.9-3.7c-0.3-1.4-0.5-2.4-0.6-2.9c-0.1-0.4-0.2-0.7-0.3-0.8s-0.2-0.1-0.4-0.1c-0.4,0.1-1.3,0-2.6-0.5
		c-0.1,0.1-0.6,0.5-1.3,1.1c-0.7,0.6-1.2,1-1.4,1.1c-0.7,0.5-1.2,1.2-1.4,2.2c-0.2,0.9-0.1,1.5,0.1,1.6c0.2,0.1,0.7-0.2,1.3-0.9
		c0.5-0.5,1-1,1.6-1.5c0.6-0.5,1-0.7,1.2-0.8c1-0.1,1,0.4,0.1,1.8c-0.1,0.2-0.3,0.4-0.5,0.6c-0.1,0.1-0.1,0.2-0.2,0.3
		c-0.1,0.1-0.2,0.2-0.3,0.3c-0.2,0.2-0.2,0.4-0.3,0.4c0,0.1,0.1,0.1,0.4,0.2c0.4,0,0.7,0.2,0.8,0.7s0,1-0.3,1.7
		c-0.3,0.7-0.7,1.4-1.2,2.2c-1.6,2.1-2.9,2.7-4,1.8c-0.3-0.3-0.5-0.7-0.6-1.1c-0.1-0.4-0.2-1-0.1-1.7c0-0.7,0-1.2-0.1-1.6
		c-0.1-0.8-0.2-1.7-0.1-2.8c0-1.1,0-1.9,0-2.3c-0.2-0.7-0.1-1.4,0.4-1.9c0.2-0.3,0.4-0.7,0.6-1.2c0.2-0.6,0.3-0.9,0.3-1.1
		c-0.1-0.4-0.4-0.3-1.1,0.2c-0.5,0.5-0.9,0.6-1.3,0.4c-0.4-0.2-0.6-0.6-0.5-1.2c0-0.5,0.1-0.8,0.4-1.1c0.3-0.3,0.7-0.4,1.1-0.6
		c0.4-0.1,0.7-0.3,1-0.6c0.3-0.3,0.4-0.8,0.3-1.4c-0.1-1-0.3-1.5-0.5-1.6c-0.2-0.1-0.7,0.2-1.4,0.8c-0.8,0.7-1.4,1.5-1.7,2.4
		c-0.3,0.9-0.7,2.7-1.2,5.5c-0.2,0.9-0.5,2.3-0.9,4.2s-0.7,3.4-0.9,4.3c-0.2,1.4-0.4,2.3-0.6,2.7c-0.1,0.4-0.3,0.9-0.6,1.3
		c-0.2,0.4-0.4,0.7-0.7,0.8c-0.3,0.1-0.6,0-0.9-0.2c-0.2-0.3-0.2-1,0-1.9c0.1-0.3,0.3-1.2,0.6-2.6c0.3-1.4,0.5-2.3,0.7-2.7
		c0.1-0.1,0.4-0.9,0.7-2.6c0.3-1.7,0.7-3.5,1-5.4c0.4-2,0.6-3.2,0.8-3.7c0-0.1-0.2-0.2-0.6-0.3c-0.4-0.1-0.6-0.2-0.7-0.4
		c-0.1-0.2-0.1-0.4-0.1-0.9c0.1-0.5,0.2-0.8,0.3-1c0.1-0.2,0.4-0.3,0.9-0.4c0.8-0.1,1.7-0.5,2.7-1s1.8-1.1,2.4-1.6
		c0.2,0,0.5-0.4,0.7-1.1c0.2-0.7,0.2-1.1-0.1-1.2c-0.2-0.2-0.6-0.5-1.1-0.9c-0.6-0.4-0.9-0.6-0.9-0.5c-0.1,0-0.1,0.4-0.3,1.1
		c-0.1,0.6-0.3,1-0.5,1.3c-0.2,0.3-0.5,0.6-0.9,0.8c-0.6,0.4-1.2,0.3-1.8-0.3c-0.2-0.2-0.5-0.4-0.7-0.4c-0.3,0-0.5-0.1-0.7-0.2
		c-0.2-0.1-0.4-0.4-0.5-0.9c0-0.2-0.3-0.6-0.7-1.2c-0.5-0.6-0.8-1.1-1-1.5s-0.2-0.8-0.1-1.3c0.3-0.6,0.7-0.7,1.2-0.5
		c0.3,0.2,0.9,0.8,1.6,1.9c0.8,1.1,1.1,1.8,1.2,2.3c0,0.2,0,0.3,0.1,0.4c0,0.1,0.1,0.1,0.3,0c0.5,0,0.7-0.6,0.7-1.8
		s-0.2-2.4-0.5-3.6s-0.5-1.8-0.7-1.9c-0.3-0.2-1,0.1-2.1,0.9c-1.1,0.8-1.8,1.5-2.2,2.1c-0.4,0.8-0.6,2-0.6,3.5
		c0,1.3-0.1,2.3-0.3,2.9c-0.2,0.6-0.5,0.9-0.9,0.9c-0.3,0-0.6-0.1-0.7-0.3c-0.2-0.2-0.2-1.2-0.1-2.9
		C143.4,48.2,143.4,46.9,143.3,45.4z M154.5,32.2c0.3-0.3,0.6-0.6,0.8-0.7s0.6-0.3,1-0.5c0.3,0,1.5-0.8,3.7-2.2
		c1.1-0.7,1.7-0.6,1.9,0.5c0.1,0.5,0,0.9-0.3,1.2c-0.3,0.3-0.7,0.6-1.4,0.8s-1,0.4-1.2,0.5c-1,0.6-2,1.2-3,1.7
		c-0.6,0.3-1.1,0.5-1.4,0.4s-0.5-0.3-0.5-0.7C154.1,32.9,154.2,32.5,154.5,32.2z M158.8,39.9c0.1,0,0.2-0.2,0.3-0.5
		c0.1-0.4,0.6-1.3,1.6-2.5c1-1.2,1.7-2,2.2-2.4c0.6-0.4,1.3-0.5,2.1-0.2c0.7,0.3,1.4,0.9,1.8,1.8c0.4,0.6,0.6,1.2,0.7,1.8
		c0.1,0.6,0.1,1.2-0.1,1.8c-0.1,0.6-0.3,1.1-0.5,1.5c-0.2,0.4-0.5,0.9-0.8,1.4c-0.4,0.5-0.7,0.8-0.8,0.9c-0.2,0.1-0.3,0.2-0.6,0.3
		c-0.3,0-0.5,0-0.7-0.1c-0.2-0.1-0.3-0.2-0.4-0.3c0-0.1,0.2-0.4,0.5-1.1c0.4-0.6,0.6-0.9,0.7-1c0.5-0.6,0.7-1.5,0.7-2.4
		c0-1-0.3-1.7-0.9-2.1l-0.6-0.5l-0.5,0.4c-0.2,0.2-0.7,0.6-1.2,1.3c-0.6,0.7-0.8,1.2-0.7,1.4c0.1,0.2,0.2,1.3,0.5,3.1
		s0.3,2.8,0.1,2.8c-0.4,0.6-0.8,0.9-1.3,0.7c-0.5-0.2-0.7-0.6-0.6-1.4c0-0.4-0.1-0.8-0.2-1.2c-0.2-0.4-0.3-0.6-0.5-0.6
		c-0.1,0-0.3,0.2-0.5,0.6c-0.1,0.3-0.3,0.5-0.4,0.7c-0.1,0.2-0.3,0.4-0.5,0.6c-0.2,0.2-0.4,0.4-0.5,0.5s-0.3,0.2-0.5,0.2
		c-0.2,0-0.4,0-0.7-0.1c-0.2-0.4-0.3-0.8-0.3-1.1c-0.1-0.4-0.1-0.7,0-0.9c0-0.3,0.1-0.6,0.1-1.1c0.1-0.5,0.1-1,0.1-1.5
		c0-0.4,0-1,0.1-1.9s0.1-1.5,0.1-1.9c0-0.4,0.1-0.8,0.3-1.3c0.2-0.5,0.4-0.9,0.6-1.3c0.2-0.2,0.3-0.3,0.3-0.3c0.1,0,0.2,0,0.4,0.1
		c0.4,0.2,0.5,1.3,0.4,3.3C158.7,39.1,158.7,40,158.8,39.9z M159.8,67.9c-0.2-0.1-0.6,0.2-1.3,1c-0.5,0.5-0.9,0.9-1,1.2
		c-0.1,0.3-0.2,0.6-0.1,1c0.2,0.7,0.6,0.6,1.3-0.3C159.7,69,160.1,68,159.8,67.9z M158.8,53.5c-0.1-1-0.2-1.5-0.4-1.5
		c-0.1,0-0.2,0.1-0.4,0.2c-0.2,0.2-0.2,0.7-0.2,1.6c0.1,1.4,0.3,2.1,0.6,2C158.9,55.8,159,55,158.8,53.5z M162.2,57.8
		c0.1,0,0.2-0.1,0.3-0.2c0.6-0.7,1.2-0.8,2-0.3c0.3,0.2,0.5,0.3,0.6,0.2c0.1-0.1,0.2-0.4,0.3-1.1c0.1-0.7,0.1-1.1,0.1-1.3
		c-0.1-0.5-0.8-0.3-2.1,0.5c-0.1,0.1-0.3,0.2-0.6,0.4c-0.3,0.2-0.5,0.3-0.5,0.4c-0.1,0.1-0.2,0.2-0.4,0.3c-0.2,0.1-0.3,0.3-0.4,0.4
		s-0.1,0.2-0.3,0.4c-0.1,0.2-0.2,0.4-0.2,0.5c0,0.2-0.1,0.4-0.1,0.7C160.8,59,161.3,58.7,162.2,57.8z M163.7,59.2
		c-0.3,0.1-0.5,0.3-0.7,0.7c-0.1,0.2,0,0.2,0.2,0.1c0.1,0,0.2-0.1,0.4-0.3c0.2-0.2,0.2-0.3,0.2-0.4
		C163.8,59.2,163.8,59.2,163.7,59.2z"/>
	<path class="st0" d="M190,43.1c0.2-0.1,0.4-0.1,0.6-0.1c0.2,0,0.4,0.1,0.5,0.3c0.3,0.2,0.6,0.5,0.8,0.8s0.4,1.1,0.7,2.3
		c0.5,1.9,0.8,2.9,1.1,2.8c0.1,0,0.3-0.8,0.5-2.2c0.5-1.5,1.3-2.2,2.3-2.3c0.4-0.1,1,0.1,1.8,0.7c0.9,0.6,1.4,1,1.5,1.4
		c0.1,0.2,0.3,0.5,0.6,0.9c0.3,0.4,0.5,0.7,0.6,1.1c0.2,0.3,0.3,0.7,0.5,1.1c0.3,0.7,0.5,1.1,0.6,1.1c0.2,0,0.4-0.2,0.7-0.8
		c0.6-1.2,1.1-1.6,1.4-1.2c0.2,0.2,0.3,0.6,0.2,1.1c-0.1,0.1-0.3,0.6-0.6,1.5c-0.4,0.9-0.6,1.4-0.7,1.5c-0.4,0.7-0.5,1.7-0.4,2.9
		c0.1,0.6,0.1,1.5,0.1,2.6c0,1.1-0.1,1.8-0.3,2.3c-0.2,0.4-0.4,0.8-0.8,1c-0.4,0.2-0.8,0.2-1.1,0c-0.2-0.3-0.4-0.5-0.3-0.7
		c0-0.2,0.1-0.4,0.3-0.8c0.2-0.3,0.2-0.6,0.3-0.7c0-0.3,0-0.7,0-1.1s-0.1-0.7-0.2-0.7c0,0-0.5,0.5-1.3,1.5c-1.1,1.5-1.9,2.2-2.2,2.3
		c0,0-0.2-0.1-0.5-0.3c-0.3-0.2-0.5-0.3-0.6-0.2c-0.1,0.1-0.1,0.4-0.1,1c0.2,0.9-0.1,1.6-1,2c-0.3,0-0.6-0.1-0.7-0.5
		c-0.2-0.4-0.4-1.4-0.6-3.1c-0.5-3.4-0.9-5.6-1.1-6.6s-0.6-2.4-1.2-4.2c-0.4-1.4-0.8-2.4-1-2.8c-0.2-0.5-0.5-0.7-0.7-0.6
		c-0.2,0-0.5,0.4-1.1,1.1c-0.5,0.7-0.9,1.3-1.2,1.9c-0.5,1.2-0.9,1.9-1.1,2.2c-0.2,0.3-0.4,0.5-0.7,0.5c-0.5,0.1-0.8-0.2-0.9-0.8
		c0-0.3,0.1-0.8,0.3-1.5c0.3-0.8,0.6-1.4,0.9-1.9c0.2-0.2,0.5-1.1,1-2.6c0.4-1.5,0.9-3,1.3-4.5c0.4-1.5,0.7-2.2,1-2.2
		c0.1,0,0.2-0.2,0.3-0.4c0.2-0.2,0.3-0.3,0.4-0.4c0.1-0.1,0.2-0.2,0.5-0.3c0.2-0.1,0.5-0.1,0.7,0.1c0.2,0.1,0.3,0.4,0.3,0.9
		c0.1,0.4-0.1,1-0.4,1.7c-0.3,0.8-0.6,1.5-1,2.2c-0.3,0.7-0.5,1.1-0.4,1.1C189.6,43.2,189.8,43.2,190,43.1z M195.7,48.1
		c-0.2,0.3-0.3,0.5-0.4,0.7c-0.1,0.2-0.2,0.4-0.2,0.7S195,49.9,195,50c0,0.1-0.1,0.3-0.1,0.6c0,0.3-0.1,0.5-0.1,0.6
		c0,0.1,0,0.3,0,0.7c0,0.3,0,0.5,0,0.6c0,0.1,0,0.3,0,0.7c0,0.4,0,0.7,0,0.8c0.3,0,0.8-0.4,1.5-1.1c0.7-0.8,1.2-1.2,1.5-1.4
		c0.8-0.6,1.2-1,1.3-1.1c0.1-0.2,0.1-0.5-0.1-0.9c-0.5-1-1-1.7-1.4-2C196.6,47.1,196,47.3,195.7,48.1z M200,53.3
		c0-0.4-0.2-0.7-0.5-0.7c-0.3,0.1-0.8,0.5-1.4,1.2c-0.6,0.7-1,1-1,1.1c-1.4,1.5-2,2.7-1.8,3.4c0.2,1.1,0.4,1.6,0.6,1.6
		s1-0.9,2.2-2.5c1.2-1.6,1.9-2.6,2-2.9C200.1,54.1,200.1,53.7,200,53.3z M225.2,43.5c0.5,0.3,0.8,0.4,1,0.4c0-0.1,0.5,0,1.4,0.3
		c0.9,0.3,1.9,0.6,2.9,0.9c1.1,0.3,1.7,0.5,1.9,0.6c0.5,0,0.8,0.3,1,0.7c0.2,0.4,0.1,0.8-0.2,1.3c-0.5,0.8-1.2,0.9-2.1,0.3
		c-0.5-0.4-1.5-0.8-3-1.2c-1.5-0.4-2.4-0.6-2.6-0.4c0,0-0.1,0-0.1,0.1c0,0,0,0.1,0,0.2c0,0.1,0,0.2,0,0.3c0,0.1,0,0.3,0,0.5
		c0,0.2,0,0.5,0,0.7c0,0.3-0.1,0.6-0.1,1c0,0.4-0.1,0.9-0.1,1.4c-0.4,3.9-1,6.3-2,7.1c-0.3,0.4-0.7,0.5-1.1,0.5c-1,0.1-2-0.5-3-1.7
		c-0.8-0.8-1-1.5-0.8-1.9c0.2-0.3,0.5-0.2,1,0.4c0.7,1,1.4,1.4,2,1.2c0.6-0.2,1-0.8,1.2-1.9c0.5-2,0.7-4.2,0.7-6.7
		c0-0.8,0-1.3-0.2-1.5c0-0.1-0.4-0.2-1.2-0.3c-0.8-0.1-1.9-0.3-3.1-0.4c-1.3-0.2-2-0.3-2.2-0.3c-0.2,0-0.4-0.2-0.5-0.5
		c-0.1-0.3-0.2-0.5-0.1-0.8c0.3-0.4,0.8-0.7,1.5-0.7c0.7-0.1,1.3,0,1.8,0.1s1.2,0.2,1.9,0.4c0.7,0.2,1.3,0.2,1.6,0.2
		c0.2,0,0.4-0.1,0.4-0.1c0,0,0.1-0.2,0.1-0.4c0.1-0.8,0-2.3-0.2-4.3c-0.2-2-0.4-3.4-0.7-4c-0.2-0.2-0.3-0.3-0.6-0.3
		s-0.7,0.4-1.4,0.9c-0.1,0.1-0.4,0.2-0.7,0.5c-0.4,0.2-0.6,0.4-0.7,0.5c-0.1,0.1-0.3,0.2-0.6,0.4c-0.3,0.2-0.5,0.3-0.6,0.3
		c-0.1,0-0.3,0.1-0.5,0.2c-0.3,0.1-0.5,0.1-0.6,0.1s-0.3,0-0.5,0c-0.2,0-0.4,0-0.6-0.1c-0.1-0.1-0.3-0.2-0.5-0.3
		c-0.2-0.1-0.4-0.3-0.6-0.5c-0.5-0.4-0.9-1.2-1.2-2.5s-0.3-2.2,0-2.9c0.2-0.3,0.5-0.5,0.9-0.6s0.8,0.1,1.1,0.4
		c0.4,0.3,0.4,0.7,0.2,1.1c-0.1,0.3-0.1,0.7,0,1.3c0.1,0.5,0.3,1,0.6,1.5c0.3,0.5,0.5,0.6,0.7,0.5c0.7-0.1,1.6-0.7,2.8-1.6
		c1.2-0.9,2.1-1.4,2.9-1.5c0.5,0,0.8,0.1,1.1,0.3c0.2,0.2,0.5,0.7,0.8,1.6c0.2,0.4,0.4,1,0.5,1.7s0.2,1.4,0.3,1.9
		c0,0.5,0.1,1.3,0.1,2.3c0.1,1,0.1,1.6,0.1,1.9L225.2,43.5z"/>
	<path class="st0" d="M249.1,16.3c0.4-0.2,1.3-0.7,2.8-1.4c1.5-0.8,2.5-1.2,3-1.5c2.6-1.6,4.9-2.6,6.7-3c0.9-0.4,2-0.5,3.2-0.5
		c1.2,0.1,2,0.3,2.2,0.6c0.4,0.4,0.7,0.7,0.7,1c0,0.3,0,0.9-0.2,1.7c-0.1,0.6-0.4,1.3-0.9,2.1s-1,1.3-1.5,1.6
		c-0.3,0-0.5,0.2-0.7,0.5c-1.3,1.6-2.3,2.5-3.2,2.7c-0.4,0.1-0.7,0-0.8-0.3c-0.1-0.3,0-0.5,0.2-0.8c0.2-0.3,0.4-0.5,0.6-0.5
		c0.1,0,0.6-0.5,1.4-1.5c0.8-1,1.4-1.8,1.8-2.6c1.3-2,0.8-2.7-1.8-2.2c-0.8,0.2-2.1,0.6-3.8,1.2c-0.8,0.3-1.8,0.8-3.1,1.6
		c-1.3,0.7-2.3,1.3-3,1.6c-3.3,1.6-5,2.5-5.3,2.7c-0.1,0.1-0.2,0.2-0.4,0.2c-0.3,0-1.3,0.6-3.1,1.8c-1.8,1.2-3.6,2.5-5.3,3.7
		c-1.7,1.3-2.5,2-2.4,2.1c-0.5,0.6-1,0.7-1.4,0.3c-0.5-0.5-0.5-1.1-0.1-2c0.3-1.2,0.4-2.9,0.1-5.3c0-0.1,0-0.3-0.1-0.4
		c-0.1-1.1-0.1-1.9,0-2.2s0.5-0.6,1.1-0.9c0.5,0.3,0.8,0.6,0.8,0.8c0.1,0.2,0.2,0.9,0.3,2.2c0.2,1.4,0.3,2.3,0.3,2.8
		c0,0.4,0,0.6,0.1,0.6C242.3,20,246.2,17.7,249.1,16.3z M245.6,27.1c-0.4,0.3-0.8,0.5-1,0.6c-0.2,0.1-0.6,0.3-1,0.5
		c-0.4,0.2-0.8,0.4-1.2,0.5c-0.3,0.1-0.7,0.2-1.1,0.3s-0.8,0.1-1.1,0.1c-0.6,0-1.1-0.2-1.4-0.7c-0.3-0.4-0.3-0.8,0-1.2
		c0-0.2,0.3-0.3,1-0.5c0.7-0.1,1.5-0.2,2.2-0.4c0.8-0.1,1.2-0.3,1.2-0.4c0.2-0.1,0.7-0.3,1.5-0.7c0.8-0.3,1.3-0.6,1.5-0.7
		c0.5-0.4,0.8-0.3,1.1,0.2c0.2,0.5,0.2,0.9-0.2,1.3c-0.2,0.4-0.4,0.6-0.5,0.6C246.3,26.7,246,26.8,245.6,27.1z M242.1,30
		c0.1-0.3,0.4-0.5,0.9-0.6c0.4-0.1,0.8,0,1.2,0.5c0.4,0.5,0.6,0.8,0.8,0.8c0.4,0,0.7,0.2,0.7,0.6c0.1,0.4-0.1,0.9-0.4,1.4
		c-0.3,0.7-0.5,1.2-0.6,1.6c-0.1,0.4-0.1,1,0,1.8c0.1,1,0.2,1.5,0.3,1.5c0.1,0.1,0.3-0.2,0.7-1c0.4-0.8,0.8-1.7,1.3-2.7
		c0.5-1,0.7-1.5,0.8-1.7c0.4-0.6,0.8-0.7,1.2-0.1c0.2,0.1,0.2,0.4,0,0.8c-0.2,0.4-0.3,0.8-0.5,1.3c-0.2,0.4-0.3,0.7-0.3,0.8
		c-0.1,0.2-0.3,0.7-0.5,1.4s-0.5,1.4-0.8,2.1c-0.2,0.6-0.5,1.3-0.8,2c-0.3,0.7-0.6,1.2-0.9,1.7c-0.3,0.4-0.6,0.6-0.8,0.5
		c-0.3,0-0.5,0-0.9-0.2c-0.3-0.2-0.5-0.4-0.6-0.7c-0.1-0.2-0.2-1.3-0.2-3.2c0-0.1,0-0.1,0-0.2c0-0.1,0-0.2,0-0.5
		c0-0.2,0-0.5-0.1-0.6c-0.1-0.2-0.2-0.3-0.4-0.4c-0.2-0.1-0.4-0.2-0.6-0.1c-0.4,0.1-0.8,0.1-1.1-0.1c-0.3-0.2-0.6-0.5-0.7-0.8
		c0-0.3,0-0.5,0.2-0.7c0.2-0.2,0.4-0.4,0.7-0.5c1.4-0.6,1.9-1.7,1.5-3.4C242,30.8,242,30.3,242.1,30z M249.4,8.4
		c0.5,0.8,0.8,1.8,1,3.1c0.2,1.3,0.2,2.1-0.1,2.5c-0.2,0.2-0.4,0.4-0.8,0.4c-0.4,0.1-0.6,0-0.7-0.1c-0.1-0.1-0.3-0.7-0.5-1.8
		c-0.3-1.1-0.5-1.7-0.6-1.9c-0.1-0.2-0.2-0.5-0.3-1s-0.3-0.8-0.4-1c-0.5-0.3-0.4-0.7,0.3-1.3C248.1,6.7,248.8,7,249.4,8.4z
		 M260.5,56.2c-0.1,0.2-0.3,0.6-0.5,1.2c-0.1,0.6-0.4,1.1-0.7,1.6c-0.3,0.5-0.5,0.9-0.7,1.3c-0.2,0.5-0.3,0.8-0.4,0.9
		c-0.1,0.1-0.2,0.3-0.4,0.5c-0.1,0.2-0.3,0.5-0.6,0.9c-0.4,0.8-1.1,1.8-1.9,3c-0.9,1.2-1.6,2-2.1,2.4c-1.1,0.9-1.9,1.2-2.3,0.8
		c-0.3-0.2-0.4-0.5-0.4-0.9s0.3-0.6,0.7-0.8c0.4-0.2,0.9-0.5,1.4-1.1c0.5-0.6,0.9-1.1,1.2-1.6c0.3-0.5,0.7-1.2,1.2-2
		c0.5-0.8,0.8-1.4,0.9-1.6c0.1,0,0.3-0.5,0.7-1.4c0.5-1,0.6-1.5,0.5-1.6s-0.5,0.3-1.3,1.2c-0.3,0.5-0.7,0.8-1.2,1.1
		c-0.5,0.2-1.1,0.3-1.7,0.2c-0.3-0.1-0.6-0.3-0.8-0.7c-0.2-0.4-0.3-0.7-0.2-1.1c0.1-0.4-0.1-1.6-0.5-3.5c-0.4-2-0.6-3.1-0.8-3.4
		c-0.2-0.4-0.3-0.7-0.2-0.9c0.1-0.2,0-1.2-0.3-3c-0.6-4.1-0.6-6.3,0-6.8c0.2-0.2,0.5-0.3,0.9-0.3c0.3,0,0.6,0,0.8,0.2
		c0.2,0.2,0.3,0.8,0.4,1.8c0,1.1,0.1,1.6,0.3,1.6c0.1,0,0.2-0.1,0.4-0.3c0.4-0.5,0.9-0.9,1.4-1.3c0.5-0.4,1.2-0.7,2-1
		c0.8-0.3,1.6-0.2,2.3,0.1c0.7,0.1,1.3,0.4,1.8,1c0.5,0.5,0.8,1.1,0.9,1.7c0,0.2,0.1,0.4,0.3,0.6c0.5,0.5,1,2.1,1.4,4.8
		c0.4,2.7,0.5,4.3,0.2,5c-0.4,0.7-0.9,1.1-1.7,1.2C261,55.9,260.7,56,260.5,56.2z M262.2,23.3c0.1,0.5-0.1,1-0.5,1.5
		c-0.4,0.6-0.6,1.1-0.6,1.7c0,0.5,0.1,1.3,0.2,2.2c0.2,0.9,0.3,1.4,0.4,1.5c0.1,0.1,0.3,0,0.6-0.4c0.3-0.4,0.6-0.9,1-1.5
		c0.3-0.6,0.6-1.3,0.8-1.9c0.2-0.5,0.5-0.9,0.9-1c0.4-0.2,0.9-0.1,1.3,0.1c0.6,0.3,1.2,1.1,1.7,2.7c0.6,1.5,0.9,2.7,1,3.5
		c0,0.7-0.2,1.2-0.6,1.5c-0.4,0.3-0.8,0.2-1.3-0.2c-0.4-0.3-0.6-0.6-0.6-0.9c0-0.5-0.1-1.2-0.5-2.1c-0.4-0.9-0.7-1.4-1-1.3
		c-0.1,0.1-0.4,0.6-0.9,1.7c-0.5,1.1-0.8,1.7-1,1.9c0,0.1-0.3,0.5-0.7,1.4c-0.5,0.9-0.9,1.4-1.3,1.7c-1,0.9-1.9,1.4-2.7,1.6
		c-0.6-0.2-1.3-0.7-2-1.4c-0.7-0.7-1-1.6-1.1-2.6l-0.3-1.5c-0.4,0-0.7,0-0.9,0s-0.4-0.1-0.6-0.2c-0.2-0.1-0.3-0.3-0.3-0.6
		c-0.1-0.4,0.1-0.8,0.5-1.3c0.7-0.9,1.7-1.7,3-2.3c0.8-0.3,1.2-0.6,1.3-0.8c0.1-0.2,0.1-0.8,0-1.7c-0.1-0.4-0.1-0.7-0.1-0.9
		c0-0.2-0.1-0.4-0.1-0.5c0-0.1-0.1-0.2-0.1-0.2c0,0-0.1,0-0.1,0c-0.1,0.1-0.5,0.3-1.3,0.7c-1.5,0.7-2.5,0.8-3,0.3
		c-0.6-0.5-0.9-1.6-1-3.4c-0.1-1.1-0.2-1.9-0.1-2.2c0.1-0.4,0.3-0.6,0.6-0.8c0.6-0.1,1.1,0,1.4,0.2c0.3,0.3,0.4,0.8,0.3,1.6
		c-0.1,0.8,0,1.3,0.2,1.6c0.2,0.3,0.5,0.4,0.8,0.3c0.5-0.1,1.1-0.6,1.8-1.5c0.7-0.9,1.3-1.9,1.9-2.9c0.6-1,1-1.5,1.3-1.6
		c0.3-0.2,0.6-0.3,0.8-0.2c0.2,0.1,0.3,0.4,0.4,0.7c0,0.3,0,0.7-0.2,0.9c0,0-0.2,0.3-0.5,1c-0.3,0.6-0.6,1.2-0.7,1.7
		c-0.2,0.5-0.2,0.9-0.1,1.2c0.1,0.2,0.1,0.4,0.1,0.6c0,0.2,0,0.4,0.1,0.6c0,0.2,0.1,0.3,0.2,0.4c0.1,0.1,0.1,0.2,0.3,0.3
		c0.1,0.1,0.3,0.1,0.5,0.1C261.7,22.6,262.1,22.9,262.2,23.3z M253.5,45.9c-0.6,0.2-0.9,0.3-1.1,0.3c0,0.2,0.1,0.5,0.2,1.1
		c0.1,0.4,0.2,0.6,0.3,0.7c0.1,0.1,0.2,0.1,0.3,0.1c0.1-0.1,0.3-0.2,0.5-0.3c0.2-0.2,0.4-0.3,0.5-0.4c0.2-0.2,0.5-0.4,0.9-0.7
		c0.4-0.3,0.7-0.6,1-0.8c0.3-0.3,0.6-0.6,0.8-0.9l0.8-1c-0.3-0.3-0.7-0.4-1.1-0.4c-0.4,0.1-0.7,0.2-0.9,0.4c-0.2,0.2-0.6,0.5-1.1,1
		C254.5,45.5,254.1,45.8,253.5,45.9z M258.9,46c-0.2,0.2-0.4,0.5-0.6,0.8c-0.2,0.3-0.4,0.5-0.5,0.5c-0.3,0.3-0.8,0.7-1.4,1.2
		c-0.6,0.5-1.1,0.9-1.5,1.3c-0.4,0.4-0.7,0.6-0.7,0.6c-0.3,0.2-0.5,0.4-0.6,0.6c-0.1,0.2-0.2,0.4-0.2,0.6c0,0.2,0.1,0.3,0.3,0.4
		c0.2,0,0.7-0.2,1.6-0.9c0.8-0.6,1.4-1.2,1.8-1.6c0.5-0.5,0.8-0.9,1-1.1s0.5-0.6,0.8-1.1c0.3-0.5,0.5-1,0.6-1.5
		C259.2,45.7,259.1,45.8,258.9,46z M258.3,51.1c-1.1,1.3-2,2.1-2.5,2.4c-0.1,0.2-0.4,0.3-1,0.3c-0.6,0-0.9,0-1,0
		c-0.1,0,0,0.6,0.1,1.6c0.2,1,0.3,1.6,0.6,1.6c0.2,0,0.8-0.4,1.7-1.3c0.3-0.3,0.7-0.8,1.3-1.5c0.6-0.7,1.2-1.4,1.7-2
		c0.5-0.6,0.9-0.9,1.1-1c0.4,0,0.5-0.4,0.5-1c-0.1-0.7-0.2-1.1-0.5-1.4C260.1,49,259.4,49.8,258.3,51.1z M259.1,29.8
		c-0.2-0.7-0.3-1.2-0.4-1.3c-0.1-0.1-0.3-0.1-0.6,0.1c-0.2,0.2-0.5,0.3-0.7,0.3c-0.4,0.2-0.6,0.3-0.8,0.5s-0.2,0.4-0.2,0.6
		c0.1,0.2,0.1,0.4,0.2,0.6c0.1,0.2,0.3,0.4,0.4,0.7c0.2,0.3,0.3,0.5,0.4,0.7c0.2,0.5,0.4,0.8,0.6,0.9s0.4,0.1,0.7-0.1
		c0.6-0.3,0.7-1.3,0.3-3C259.2,30,259.1,29.9,259.1,29.8z M264.2,60.3c-1.2-0.3-1.9-0.5-2-0.5c-0.3,0-0.7,0-1.2-0.2
		s-0.7-0.4-0.9-0.7c-0.1-0.2-0.1-0.5,0-0.6c0.1-0.2,0.4-0.4,0.9-0.6c0.3-0.3,0.8-0.4,1.3-0.4c0.6,0,1.1,0.1,1.6,0.3
		c0.4,0.1,1,0.3,1.7,0.5c0.7,0.2,1.3,0.3,1.7,0.3c0.4,0.1,0.8,0.2,1.3,0.3c0.5,0.2,0.9,0.3,1.2,0.2c0.2-0.1,0.5-0.1,1.1,0.2
		s0.9,0.4,1.1,0.7c0.2,0.3,0.2,0.8,0,1.5c-0.2,0.6-0.5,1-1,1.1c-0.3,0-0.7-0.2-1.3-0.5c-0.6-0.3-1.1-0.4-1.5-0.5s-0.8-0.2-1.1-0.3
		c-0.4-0.2-0.7-0.3-1-0.3C266.1,60.8,265.4,60.7,264.2,60.3z"/>
	<path class="st0" d="M286.8,11.2c0,0-0.4,0.5-1.2,1.6c-0.3,0.4-0.6,0.7-0.8,1c-0.2,0.3-0.3,0.5-0.4,0.7c-0.1,0.2-0.2,0.3-0.1,0.4
		c0,0.1,0,0.1,0.1,0.2c0.5,0.5,0.8,1,0.9,1.4c0.1,0.4,0.2,1.4,0.3,2.8l0.2,1.6c0,0.1,0.2,0,0.5-0.4c0.1-0.2,0.3-0.3,0.6-0.5
		c0.3-0.2,0.7-0.3,1.2-0.5c0.5-0.2,0.8-0.3,0.9-0.3c2.5-0.7,4,0,4.7,2c0.2,0.6,0.3,1,0.3,1.2c0,0.2-0.1,1-0.4,2.3
		c0,0.3-0.2,0.8-0.5,1.6c-0.3,0.8-0.5,1.4-0.6,1.8c-0.1,0.5-0.2,0.8-0.2,1c-0.1,0.1-0.3,0.4-0.7,0.6c-1.3,0.9-2.2,1.7-2.9,2.3
		c-0.5,0.5-0.9,0.7-1.4,0.7c-0.2,0-0.4,0.1-0.5,0c-0.1,0-0.2,0.1-0.2,0.2c0,0.1,0,0.2,0,0.3c0,0.1,0.1,0.3,0.2,0.5
		c0.1,0.2,0.1,0.5,0.1,0.7c0.2,0.9,0.4,1.4,0.6,1.4c0.2,0,0.9-0.5,1.9-1.4c1-0.9,1.9-1.9,2.6-2.8c0.6-0.8,1.1-1.3,1.4-1.5
		c0.3-0.2,0.6-0.2,0.8,0c0.3,0.3,0.5,0.6,0.3,1c-0.1,0.4-0.5,1-1.3,1.8c-0.2,0.2-0.5,0.6-1,1.2c-0.5,0.6-0.9,1.1-1.2,1.4
		c-0.3,0.3-0.7,0.7-1.1,1.2c-0.4,0.4-0.8,0.7-1.2,0.9c-0.6,0.4-1,0.7-1.2,1c-0.2,0.3-0.3,0.8-0.4,1.5c0,0.7,0.1,1.1,0.3,1.2
		c0.2-0.1,0.5-0.2,0.8-0.5c0.4-0.3,0.7-0.5,0.9-0.5c1.5-0.7,3.2-2,5-4c0.1-0.1,0.4-0.3,1-0.8c0.6-0.5,1-0.9,1.3-1.1
		c0.3-0.2,0.7-0.6,1.2-1c0.5-0.4,1-0.7,1.4-0.9c0.4-0.2,0.8-0.4,1.1-0.5c0.1-0.1,0.3-0.2,0.4-0.2s0.3,0,0.4-0.1c0.1,0,0.2,0,0.3,0
		c0.1,0,0.2,0,0.3,0c0.1,0,0.2,0.1,0.3,0.1s0.2,0.1,0.2,0.1c0,0,0.2,0.1,0.4,0.4c0.5,0.7,0.8,1.2,1,1.7c0.2,0.4,0.4,1.3,0.7,2.7
		c0.4,1.9,0.6,2.9,0.8,3.2c0.2,0.6,0.3,1.6,0.3,2.9c-0.1,1.4-0.3,2.7-0.6,3.9c-0.2,0.8-0.7,1.6-1.3,2.5c-0.7,0.9-1.3,1.5-2,1.9
		c-0.6,0.3-1.7,0.4-3.4,0.4c-1.6,0-2.8-0.2-3.5-0.6c-0.7-0.4-0.7-0.8-0.1-1.2c0.4-0.3,0.6-0.6,0.6-1c0-0.4-0.2-1-0.5-1.8
		c-0.2-0.5-0.4-0.8-0.6-1c-0.2-0.2-0.4-0.2-0.6-0.2c-0.1-0.1-0.4,0.1-0.9,0.8s-0.9,1.4-1.3,2.1c-0.4,0.8-0.6,1.2-0.6,1.4
		c-0.1,0.6-0.2,1-0.4,1.2c-0.2,0.2-0.5,0.4-0.8,0.4c-0.4,0.1-0.6,0.2-0.8,0.4c-0.3,0.3-0.7,0.8-1.3,1.3c-0.6,0.5-1.2,0.9-1.6,1.1
		c0,0-0.1,0-0.1,0c-0.1,0-0.1,0-0.2,0.1c-1.1,0.5-2.3,0.7-3.7,0.7c-1.4,0-2-0.6-1.8-1.7c0-0.4,0.1-0.8,0.2-1.3
		c0.1-0.5,0.2-1,0.2-1.5c0.1-1.3,0.4-2.2,0.9-2.6c0.3-0.3,0.8-0.3,1.3,0c0.5,0.3,0.7,0.6,0.6,1c0,0,0,0.3-0.1,1
		c-0.1,0.7-0.1,1.2-0.1,1.8c0,0.5,0.1,0.8,0.3,0.8c0.2,0.1,0.6,0.1,1.2,0c0.7-0.1,1.1-0.2,1.5-0.4c0.3-0.2,0.8-0.6,1.4-1.3
		c0.6-0.6,0.9-1.1,1-1.3c0-0.4-0.1-0.9-0.5-1.6c-0.3-0.7-0.6-1.2-0.8-1.7c-0.2-0.4-0.2-1,0.1-1.6c0.4-0.4,0.8-0.6,1.3-0.4
		c0.5,0.1,0.8,0.5,0.9,1c0,0.1,0.2,0.7,0.6,1.9c0.1,0.3,0.3,0.4,0.4,0.3c0.2,0,0.4-0.2,0.8-0.5c0.6-0.5,1-1.1,1.4-1.6
		c0.4-0.6,0.6-0.9,0.5-1.2c-0.1-0.3,0-0.6,0.3-0.9c0.2-0.3,0.6-0.4,0.9-0.4c0.3,0,0.5,0,0.6,0.1c0.1,0.1,0.4,0.3,0.8,0.7
		c0.8,0.8,1.3,1.7,1.7,2.7c0.4,1,0.4,1.8,0.2,2.5c-0.2,0.6-0.2,0.9,0.1,1c0.2,0.1,0.8,0,1.7-0.2c0.7-0.2,1.2-0.4,1.5-0.7
		c0.3-0.2,0.7-0.6,1-1.2c1.2-2,1.6-4.3,1.2-6.9c-0.1-0.4-0.1-1.1-0.2-2c-0.3-2.8-0.7-4.4-1.3-4.8c-0.5-0.3-1.1-0.2-1.8,0.4
		c-0.7,0.5-1.6,1.3-2.7,2.3c-1.1,1-1.8,1.7-2.2,2c-0.2,0.2-0.5,0.5-0.9,0.9c-0.4,0.4-0.6,0.6-0.7,0.7c-0.1,0.1-0.3,0.3-0.6,0.6
		c-0.3,0.3-0.6,0.5-0.9,0.7c-0.3,0.2-0.7,0.5-1.1,0.8c-0.8,0.6-1.4,0.9-1.7,0.9c-0.5,0-0.9-0.3-1.1-0.7c-0.1-0.2-0.1-0.3-0.2-0.4
		c-0.1,0-0.2,0-0.5,0.1c-0.4,0.1-0.9,0-1.4-0.3c-0.2-0.2-0.3-0.5-0.4-1.1c0-0.6,0-1.8,0-3.6c0-1,0-1.7-0.1-2.3
		c-0.7-3.5-1.1-5.7-1.2-6.6c-0.1-0.9-0.2-2.2-0.2-4.1c0-1.9-0.2-3.8-0.4-5.7c-0.1-0.9-0.1-1.5-0.1-1.6c0.1-0.3,0-0.4-0.2-0.4
		c-0.2,0-0.3,0.2-0.5,0.5c-0.7,1-1.3,1.9-1.9,2.7c-0.6,0.8-1,1.2-1.2,1.2c-0.2,0-0.4,0-0.6-0.1c-0.2-0.1-0.3-0.3-0.3-0.5
		c0-0.3,0.2-0.7,0.5-1.3c0.3-0.6,0.7-1.3,1.2-2c0.5-0.8,0.8-1.3,0.9-1.4c1.4-2.6,2.8-4.5,4.1-5.7c0.3-0.3,0.6-0.5,1-0.4
		c0.4,0.1,0.7,0.3,0.8,0.7C286.8,11.1,286.8,11.2,286.8,11.2z M288.6,21.4c-1,0.5-1.6,0.7-1.9,0.8c-0.6,0.1-0.9,0.2-1,0.4
		c-0.1,0.1-0.1,0.6-0.1,1.3c0,0.8,0.1,1.3,0.2,1.5s0.3,0.3,0.6,0.2c0.2-0.1,0.7-0.5,1.6-1.2c0.8-0.7,1.4-1.2,1.6-1.5
		c0.2-0.3,0.5-0.5,0.9-0.8c0.4-0.3,0.7-0.4,0.9-0.5c0.3-0.1,0.4-0.2,0.1-0.5c-0.1-0.1-0.2-0.2-0.4-0.2
		C290.4,20.8,289.6,21,288.6,21.4z M291.5,23.6c-0.1,0-0.4,0.2-0.7,0.5c-0.4,0.4-1,0.9-1.7,1.7c-0.7,0.7-1.4,1.3-1.9,1.8
		c-0.7,0.6-1.1,1-1.3,1.3c-0.1,0.3-0.1,1,0.2,1.9c0.2,0.7,0.7,0.5,1.5-0.6c0.6-0.9,0.9-1.4,0.7-1.6l0-0.6l0.8-0.2
		c0.3,0,0.5-0.1,0.8-0.4c0.3-0.3,0.6-0.6,0.9-1c0.3-0.4,0.4-0.6,0.5-0.6C291.7,24.3,291.9,23.5,291.5,23.6z"/>
</g>
<g>
	<path class="st0" d="M196.5,87.3c0.1,0.1,0.2,0.2,0.2,0.3c0,0.1-0.2,0.4-0.7,1c-0.1,0.1-0.1,0.2-0.1,0.3c0,0.1,0,0.5,0.1,1.2
		c0.2,1.3,0.4,3,0.5,5c0.1,0,0.2,0,0.3,0s0.2,0,0.3,0c0.1,0,0.1,0,0.2,0.1s0.1,0.2,0.1,0.3c0.1,0.1,0,0.4-0.3,0.8
		c-0.3,0.4-0.4,0.6-0.4,0.7c0,0.1-0.1,0.7,0,1.6c0,1,0,1.8,0.1,2.5c0.1,1,0.1,1.8,0,2.2c-0.1,0.4-0.3,0.7-0.6,0.7
		c-0.2,0-0.3-0.1-0.4-0.3c-0.1-0.2-0.1-0.5,0-0.8c0.1-0.2,0.1-0.5,0.1-0.8c0-0.3,0-0.7-0.1-1.2c0-0.4-0.1-0.8-0.1-1.1
		c0-0.9-0.1-1.4-0.2-1.4c-0.1,0-0.4,0.1-0.8,0.5c-0.4,0.3-0.7,0.6-1.2,0.9c-0.4,0.4-0.7,0.6-0.9,0.8c-0.2,0.2-0.7,0.4-1.4,0.7
		c-0.7,0.3-1.1,0.5-1.2,0.5c-0.4-0.2-0.5-0.5-0.4-0.8c0.1-0.3,0.1-0.5,0.3-0.6c0.1-0.1,0.4-0.2,0.8-0.2c0.3,0,0.7-0.1,1.1-0.3
		c0.4-0.2,0.9-0.6,1.3-1c0.5-0.4,0.8-0.7,1-0.8c0.5-0.4,0.8-0.7,1.1-1c0.2-0.2,0.4-0.4,0.4-0.5c0-0.1,0-0.5,0-1.1c0-0.4,0-0.7,0-0.9
		c0-0.2-0.1-0.3-0.1-0.3s-0.2,0.1-0.3,0.2c-0.1,0-0.1,0.1-0.1,0.1c0,0-0.1,0.1-0.1,0.1c-0.1,0.1-0.1,0.1-0.2,0.1
		c-0.4,0.3-0.6,0.6-0.8,0.7l-0.3,0.2l0.2,0.8c0.1,0.4,0.1,0.7,0.1,0.8c0,0.1-0.1,0.2-0.3,0.2c-0.3,0-0.5-0.1-0.7-0.3
		c-0.2-0.6-0.2-1.1-0.3-1.3c0-0.3-0.1-0.7-0.1-1.3c0-0.6-0.1-1.1-0.1-1.6c-0.1-1.1-0.2-1.6-0.4-1.6c0,0-0.2,0-0.4,0.1
		c-0.6,0.4-1.1,0.6-1.5,0.7c-0.6-0.1-0.6-0.4-0.1-0.9c0.3-0.4,0.6-0.6,0.8-0.6c0.4-0.1,0.8-0.3,1.3-0.7s0.9-0.6,1-0.6
		c0.2-0.1,0.4-0.3,0.7-0.5c0.2-0.2,0.6-0.5,0.9-0.8c0.4-0.3,0.6-0.5,0.6-0.6c0.3-0.3,0.6-0.5,0.8-0.5
		C196.2,87.2,196.3,87.2,196.5,87.3z M194.6,89.9c-0.1,0-0.4,0.2-1,0.7c-0.2,0.1-0.3,0.4-0.3,0.7c0,0.3,0,0.5,0.1,0.5
		c0.1,0,0.3,0,0.5-0.2c0.3-0.1,0.5-0.3,0.6-0.5C194.9,90.7,195,90.3,194.6,89.9z M195.3,92.7c0-0.2-0.1-0.4-0.2-0.5
		c-0.1,0-0.4,0.1-0.8,0.4s-0.7,0.4-0.8,0.5c-0.1,0.1-0.1,0.3-0.1,0.7c0,0.3,0,0.5,0.1,0.6c0.1,0,0.2-0.1,0.4-0.2
		c0.2-0.1,0.4-0.3,0.6-0.5c0.2-0.2,0.4-0.3,0.5-0.4C195.2,93.1,195.3,92.9,195.3,92.7z M202.8,103.3c0.2-0.3,0.3-0.4,0.5-0.5
		s0.3-0.1,0.5,0c0.1,0,0.2,0.2,0.3,0.3c0,0.2,0,0.4-0.2,0.6c-0.3,0.4-0.8,0.9-1.3,1.3c-0.3,0.2-0.4,0.4-0.5,0.6
		c-0.1,0.2-0.1,0.5-0.1,1c0,0.4,0,0.8,0,1c0,0.3,0,0.4,0,0.4c0.2-0.1,1.6-0.6,4.2-1.5c2.6-0.9,4.5-1.5,5.7-1.8
		c0.1,0,0.4-0.1,0.8-0.2c0.4-0.1,0.7-0.2,0.9-0.3c0.2-0.1,0.4,0,0.7,0c0.1,0.1,0.2,0.3,0.2,0.5c0,0.2,0,0.4-0.1,0.5
		c0.1,0.1-0.1,0.2-0.5,0.2c-0.4,0.1-0.8,0.2-1.3,0.3c-0.5,0.1-0.7,0.2-0.7,0.2c-1.4,0.4-3.8,1.2-7.3,2.4c-3.5,1.2-6.2,2-8.3,2.6
		c-0.5,0.1-0.7,0.1-0.9,0.1c-0.1-0.1-0.2-0.2-0.2-0.5c0-0.2,0-0.4,0.1-0.5c0.1-0.1,0.2-0.2,0.4-0.3c0.2-0.1,0.8-0.2,1.9-0.5
		c1.4-0.3,2.3-0.6,2.6-0.8c0.4-0.2,0.6-0.6,0.7-1.2c0.1-0.5,0.1-0.8,0-0.9c-0.1-0.1-0.3-0.1-0.6,0.1c-0.4,0.2-0.6,0.2-0.8,0.2
		c-0.2,0-0.3-0.2-0.3-0.5c0-0.2,0-0.3,0.1-0.4c0.1-0.1,0.3-0.2,0.5-0.3c0.5-0.2,0.8-0.4,0.9-0.6c0.1-0.2,0.2-0.6,0.2-1.2
		c0-0.4,0-0.6-0.1-0.7c-0.1-0.1-0.2,0-0.5,0.1c-0.4,0.2-0.7,0.3-0.9,0.3c-0.2,0-0.3-0.2-0.4-0.5c-0.1-0.3,0-0.5,0.1-0.6
		c0.1-0.2,0.4-0.3,0.7-0.4c1.3-0.5,2.1-0.8,2.4-1c0.6-0.4,1-0.3,1.1,0.3c0,0.2-0.1,0.4-0.2,0.5c-0.1,0.1-0.3,0.3-0.6,0.4l-0.6,0.2
		l0,0.7c0,0.4,0.1,0.7,0.1,0.7c0,0.1,0.1,0.1,0.3,0.1C202.4,103.8,202.5,103.6,202.8,103.3z M206.3,94.1c-0.2,0.2-0.5,0.3-0.9,0.5
		c-0.4,0.2-0.7,0.3-0.8,0.3c-0.2,0.1-0.4,0.2-0.8,0.3c-0.4,0.1-0.7,0.2-0.9,0.3s-0.4,0.2-0.5,0.3c-0.2,0.3-0.5,0.3-0.7,0.1
		c-0.1-0.1-0.3-0.8-0.5-2.3c-0.2-1.5-0.4-2.4-0.4-2.6c0-0.2,0-0.4,0.1-0.5c0.1-0.1,0.2-0.2,0.4-0.2c0.2,0,0.3,0,0.5,0.1
		c0.2,0.1,0.4,0.2,0.4,0.1c0.1,0,0.2-0.1,0.3-0.2c0.2-0.1,0.3-0.2,0.5-0.2c0.7-0.2,1.2-0.2,1.6,0.1c0.2,0.1,0.3,0.3,0.3,0.6
		c0,0.6-0.2,1.3-0.7,2.2c-0.3,0.4-0.3,0.6,0,0.6c0.2,0,0.4-0.1,0.8-0.3c0.3-0.2,0.6-0.2,0.9-0.2s0.5,0.2,0.5,0.4
		C206.5,93.7,206.5,93.9,206.3,94.1z M203.3,92.6c0.1-0.1,0.2-0.3,0.3-0.7c0.1-0.3,0.2-0.6,0.1-0.6c-0.1-0.1-0.2-0.1-0.5,0
		c-0.3,0.1-0.5,0.2-0.7,0.4c-0.3,0.3-0.5,0.8-0.4,1.5c0.1,0.5,0.1,0.7,0.2,0.7C202.6,93.9,202.9,93.4,203.3,92.6z"/>
	<path class="st0" d="M221,92.8c0.2-0.2,0.5-0.5,0.7-0.8c0.2-0.3,0.4-0.5,0.4-0.5c0.1,0,0.2,0,0.4,0.1c0.2,0.1,0.3,0.3,0.2,0.7
		c-0.1,0.3-0.5,0.7-1,1.3c-0.5,0.6-0.9,1-1,1.3c-0.1,0.2,0,1.4,0.3,3.7c0.1,1.2,0.2,1.8,0.2,1.9c0.1,0.3,0.1,0.4,0.2,0.4
		c0.1,0,0.1-0.1,0.2-0.2c0-0.1,0.2-0.4,0.5-0.9c0.3-0.5,0.4-0.8,0.5-0.9c0.1-0.2,0.1-0.4,0.2-0.6c0.1-0.2,0.2-0.4,0.3-0.6
		c0.1-0.2,0.2-0.3,0.2-0.4c0-0.1,0.2-0.2,0.4-0.4c0.2-0.1,0.4-0.1,0.5,0c0.1,0.1,0,0.3-0.2,0.8c-0.2,0.4-0.3,0.7-0.3,0.7
		c-0.1,0.4-0.3,0.9-0.4,1.4c-0.2,0.5-0.4,1.1-0.8,1.8c-0.3,0.7-0.5,1.2-0.6,1.3c-0.4,1-0.9,1.2-1.4,0.6c-0.1-0.1-0.1-0.4-0.1-0.9
		c0-0.5,0-0.8-0.1-0.9c-0.1-0.4-0.1-1-0.2-1.8s-0.2-1.6-0.3-2.3c-0.2-1.2-0.4-1.8-0.5-1.8c-0.1,0-0.3,0.1-0.8,0.4
		c-0.5,0.2-1,0.5-1.4,0.7c-0.4,0.2-0.7,0.2-0.7,0.1c0,0-0.1-0.2-0.2-0.6c-0.1-0.3-0.1-0.4,0-0.6c0.1-0.1,0.2-0.2,0.5-0.3
		c0.2-0.1,0.4-0.1,0.5-0.2c0.2-0.1,0.5-0.2,0.8-0.4c0.3-0.2,0.5-0.3,0.7-0.3c0.3-0.1,0.5-0.3,0.6-0.4c0.1-0.1,0.1-0.4,0.1-0.8
		c0-0.1,0-0.3,0-0.5c0-0.2,0-0.3,0-0.4c0-0.1,0-0.2,0-0.3s0.1-0.3,0.1-0.4c0.2-0.3,0.5-0.3,0.7-0.2c0.2,0.2,0.3,0.4,0.3,0.8
		c0,0.5,0,0.7,0.1,0.7C220.6,93.1,220.7,93,221,92.8z M231,96.8c0.2,0.5,0.3,0.8,0.4,0.8c0,0.2,0.1,0.3,0.4,0.3c0.2,0,0.6,0,1.2-0.1
		c1.1-0.2,2.5-0.6,4.2-1.1c1.7-0.5,2.9-0.9,3.6-1c0.7-0.2,1.4-0.4,2.2-0.7s1.2-0.5,1.4-0.6c0.1-0.1,0.2-0.2,0.2-0.3
		c0-0.1,0-0.2,0-0.5c0-0.3,0-0.5,0-0.6c0-0.1,0.1-0.2,0.2-0.2c0.3,0,0.6,0.3,0.8,0.9c0.2,0.6,0.2,1,0.1,1.3
		c-0.1,0.3-0.4,0.5-0.9,0.7c-0.5,0.2-0.9,0.3-1.2,0.4c-0.3,0.1-0.7,0.3-0.9,0.4c-0.3,0.1-0.7,0.2-1.2,0.3c-0.4,0.1-0.9,0.2-1.5,0.4
		c-0.6,0.2-1,0.3-1.3,0.4c-0.9,0.3-2.1,0.6-3.6,1c-1.5,0.4-2.6,0.6-3.2,0.6c-0.3,0-0.5-0.1-0.7-0.3c-0.2-0.2-0.4-0.5-0.7-0.9
		c-0.3-0.5-0.5-1-0.7-1.4c-0.1-0.4-0.2-1.1-0.3-1.9c-0.1-0.9-0.1-1.4-0.3-1.4c0,0-0.1,0-0.2,0.1c-0.1,0.1-0.3,0.2-0.6,0.3
		c-0.3,0.1-0.5,0.2-0.6,0.2c-0.1,0-0.2-0.1-0.3-0.3c-0.1-0.2-0.2-0.3-0.2-0.4c0-0.1,0-0.3,0.1-0.4c0.1-0.1,0.3-0.2,0.5-0.3
		c0.2-0.1,0.3-0.2,0.4-0.3c0.1-0.1,0.3-0.2,0.6-0.4c0.3-0.1,0.4-0.2,0.5-0.3c0.1-0.2,0.1-1-0.2-2.4s-0.4-2.2-0.3-2.4
		c0.1-0.2,0.2-0.3,0.5-0.3c0.2,0,0.4,0.1,0.6,0.2c0.1,0.1,0.2,0.6,0.4,1.5c0.2,0.9,0.3,1.6,0.4,2.1c0.1,0.3,0.1,0.5,0.2,0.5
		c0.1,0,0.3-0.1,0.6-0.4c0.3-0.2,0.5-0.4,0.7-0.6c0.1-0.1,0.2-0.2,0.2-0.3c0-0.1,0-0.4-0.1-0.9c-0.1-1.3-0.1-2.1-0.1-2.6
		s0.1-0.7,0.2-0.9c0.1-0.1,0.2-0.1,0.2-0.2c0.1,0,0.2,0,0.4,0.2c0.2,0.1,0.3,0.2,0.4,0.3c0,0.1,0,0.4,0,0.8c0,0.3,0,0.7,0,1.3
		c0,0.6,0.1,1,0.3,1.2c0.1,0,0.4-0.1,0.9-0.4c1.6-0.8,2.6-0.7,3,0.4c0.1,0.5,0,1-0.2,1.7c-0.2,0.7-0.5,1.3-0.8,1.7
		c0,0-0.1,0.1-0.1,0.1c-0.2,0.2-0.3,0.4-0.5,0.5c-0.1,0.1-0.3,0.2-0.5,0.4c-0.2,0.1-0.4,0.2-0.7,0.2c-0.2,0-0.5,0-0.7-0.1
		c-0.2-0.1-0.3-0.2-0.4-0.4c-0.1-0.2-0.2-0.3-0.2-0.4c0.1-0.2,0.3-0.2,0.6-0.1c0.2,0.1,0.3,0.1,0.4,0.1c0.1,0,0.2-0.1,0.4-0.2
		c0.2-0.1,0.5-0.7,1-1.6c0.1-0.3,0.3-0.6,0.3-1c0.1-0.4,0.1-0.6,0-0.7c-0.1-0.1-0.5-0.1-1.1,0.1c-0.6,0.2-1,0.5-1.4,0.9
		c-0.1,0.1-0.2,0.2-0.2,0.3c0,0.1-0.1,0.3-0.1,0.7c0,0.5-0.1,0.9-0.1,1.1c0,0.2-0.1,0.4-0.3,0.6c-0.3,0.5-0.6,0.9-0.8,1.1
		c-0.2,0.2-0.5,0.2-0.7,0.1c-0.2-0.1-0.3-0.2-0.3-0.4c0-0.2,0.1-0.3,0.3-0.4c0.3-0.2,0.5-0.5,0.6-1s0.2-0.7,0-0.8
		c-0.1-0.1-0.3,0.1-0.8,0.4c-0.4,0.4-0.6,0.6-0.7,0.8c-0.1,0.4-0.1,1.3,0.1,2.6C230.6,95.9,230.8,96.3,231,96.8z"/>
	<path class="st0" d="M250.6,96.1c-0.2,0.1-0.3,0.1-0.4,0.1c-0.1,0-0.3-0.1-0.3-0.3s-0.2-0.6-0.3-1.3c-0.3-1.9-0.6-2.8-0.9-2.7
		c-0.1,0.1-0.2,0-0.3-0.1c-0.1-0.1-0.2-0.3-0.2-0.5s0-0.4,0-0.6c0.1-0.4,0.3-0.6,0.7-0.5c0.3,0,0.7,0.2,0.9,0.6
		c0.1,0.1,0.1,0.2,0.1,0.2c0,0,0.1,0,0.1,0c0,0,0.1-0.1,0.1-0.1c0,0,0-0.1,0.1-0.3c0.3-0.8,0.7-1.2,1.4-1.3c0.1,0,0.3,0,0.6,0.1
		c0.3,0.1,0.5,0.2,0.6,0.4c0.3,0.4,0.5,0.9,0.5,1.7c0,0.9,0,1.6-0.2,2.1c-0.2,0.5-0.5,1.3-1.1,2.2c-0.1,0.1-0.2,0.2-0.4,0.2
		c-0.2,0.1-0.4,0-0.5-0.1c0,0-0.1-0.1-0.2-0.1c-0.1,0-0.1,0-0.1,0c0,0-0.1,0,0,0.1C250.9,95.9,250.8,96,250.6,96.1z M250.9,94.5
		c0.1,0.1,0.1,0.1,0.1,0.2c0,0,0.1,0,0.3-0.1c0.2-0.1,0.4-0.2,0.5-0.4c0.1-0.1,0.2-0.5,0.4-1c0.1-0.4,0.2-0.6,0.2-0.8
		c0-0.2,0-0.5-0.1-0.9c-0.1-0.6-0.2-1-0.2-1.1c-0.2-0.2-0.4-0.2-0.7,0.2c-0.3,0.4-0.5,0.8-0.7,1.2c-0.1,0.2-0.1,0.6,0,1.4
		C250.7,93.9,250.8,94.3,250.9,94.5z M264.3,79.7c0.2,0,0.4,0.1,0.4,0.5c0.1,0.2-0.1,0.5-0.4,0.9c-0.3,0.4-0.6,0.6-0.8,0.7
		c-0.7,0.4-1.2,0.6-1.5,0.8l-0.4,0.2l0.1,0.5c-0.1,2-0.4,3.9-0.9,5.6c0,0.1-0.1,0.4-0.1,0.7c0,0.3-0.1,0.5,0,0.7
		c0,0.1,0,0.2,0.1,0.2c0,0,0.2,0,0.4-0.1c0.1,0,0.2-0.1,0.3-0.1c0.1,0,0.2-0.1,0.3-0.1c0.1-0.1,0.2-0.1,0.3-0.1
		c0.1,0,0.2-0.1,0.3-0.2c0.1-0.1,0.2-0.1,0.2-0.2c0,0,0.1-0.1,0.2-0.2c0.1-0.1,0.2-0.2,0.2-0.2c0,0,0.1-0.1,0.2-0.2
		c0.1-0.1,0.2-0.2,0.2-0.2c0.1-0.1,0.2-0.2,0.3-0.3s0.2-0.2,0.2-0.2c0,0,0.1-0.1,0.1-0.2c0-0.1,0-0.2,0-0.3c0-0.1-0.1-0.3-0.1-0.6
		c-0.3-1.2-0.4-2-0.3-2.3c0-0.2,0.2-0.4,0.5-0.4c0.3-0.1,0.5,0,0.6,0.1c0,0.1,0.1,0.5,0.3,1.2c0.1,0.7,0.2,1.2,0.3,1.2
		c0.1,0.2,0.4,0.1,0.7-0.3c0.1-0.1,0.3-0.3,0.8-0.6c0.5-0.4,0.8-0.6,0.8-0.8c0.1-0.2,0.4-0.4,0.7-0.6c0.4-0.1,0.6-0.1,0.8,0
		c0.2,0.1,0.2,0.4,0.1,0.6c-0.1,0.3-0.2,0.4-0.4,0.5c-0.2,0.1-0.4,0.3-0.6,0.5c-0.3,0.3-0.5,0.4-0.7,0.5c-0.7,0.5-1.3,1-1.8,1.5
		l-0.3,0.3l0.1,1c0.1,0.5,0.1,1,0.1,1.6c0,0.6,0.1,1.1,0.1,1.6c0,0.5,0.1,1.1,0.3,1.8c0.1,0.8,0.2,1.2,0.2,1.4s0,0.4,0,0.6
		c-0.2,0.7-0.5,1-0.9,1c-0.4,0-0.9-0.4-1.3-1.1c-0.4-0.6-0.5-1-0.2-1c0.3-0.1,0.5,0.1,0.8,0.4l0.2,0.3l0.1-0.4c0-0.3,0-0.8-0.2-1.4
		c-0.2-0.9-0.3-2.2-0.3-3.9c0-0.2,0-0.3-0.1-0.4s-0.1-0.1-0.2-0.1c-0.4,0.5-1,1.5-1.6,2.9c0,0.4-0.6,1.2-1.7,2.6
		c-0.7,0.8-1.1,1.2-1.4,1.4c-0.3,0.1-0.5,0-0.7-0.3c-0.1-0.2-0.2-0.5-0.2-0.9s0-0.7,0.1-0.9c0-0.1,0.1-0.1,0.3-0.1
		c0.1,0,0.2,0,0.3,0.1c0.2,0.2,0.4,0.2,0.7-0.3c0.2-0.3,0.5-0.6,0.7-0.8c0.2-0.2,0.4-0.6,0.7-1.1c0.3-0.5,0.4-0.9,0.4-1
		c0-0.1-0.1-0.1-0.1-0.1c-0.1,0-0.3,0-0.7,0.1l-0.8,0.2l-0.3-0.2c-0.1,0-0.1-0.1-0.2-0.2c-0.1-0.1-0.1-0.2-0.1-0.3
		c0-0.1,0-0.2,0-0.3c0-0.1,0-0.2,0-0.4c0-0.2,0-0.3,0-0.3c0-0.1,0-0.2,0-0.3c0-0.2,0-0.2,0-0.3c0.1-0.4,0.2-1,0.4-1.9
		c0.2-0.9,0.4-1.8,0.5-2.8c0-0.4,0.1-0.6,0.2-0.8c0.1-0.2,0.1-0.3,0.1-0.4c-0.1,0-0.2,0-0.4,0.1c-0.6,0.3-1.3,0.7-2,0.9
		c-0.3,0.1-0.5,0.2-0.6,0.2c-0.1,0-0.2-0.1-0.3-0.2c-0.2-0.3-0.2-0.5,0-0.7c0.2-0.2,0.7-0.5,1.6-0.9c0.5-0.2,0.9-0.4,1.2-0.6
		s0.7-0.4,1-0.6c0.3-0.2,0.6-0.4,0.9-0.6c1.2-0.7,1.9-1.2,2.1-1.4C263.8,79.9,264,79.7,264.3,79.7z"/>
	<path class="st0" d="M272.8,88.5c0.3-0.3,0.5-0.4,0.6-0.5c0.1-0.1,0.2-0.2,0.5-0.3c0.2-0.2,0.4-0.3,0.5-0.4l0.4-0.2l-0.2-1.2
		c-0.2-1.6-0.3-2.5-0.2-2.7c0.2-0.3,0.5-0.3,0.9,0l0.3,0.2l0.2,1.1c0.1,0.9,0.3,1.4,0.4,1.4c0.1,0,0.2-0.2,0.6-0.6
		c0.1-0.2,0.3-0.3,0.4-0.5c0.2-0.2,0.3-0.3,0.4-0.4c0.1-0.1,0.2-0.3,0.2-0.6c0.1-0.3,0.1-0.5,0.2-0.6c0.1-0.1,0.3-0.1,0.5-0.1
		c0.2,0,0.4-0.1,0.5-0.3c0.5-0.6,0.8-0.9,1-0.9c0,0,0.1,0,0.2-0.1s0.2-0.1,0.2-0.2c0.1,0,0.1-0.1,0.2-0.1c0.1,0,0.1,0,0.2,0.1
		c0.2,0.2,0,0.5-0.3,0.8c-0.3,0.2-0.6,0.6-0.8,1c-0.3,0.4-0.5,0.8-0.5,1c-0.1,0.3-0.2,0.8-0.2,1.5c0,0.7,0,1.1,0.1,1.2
		c0,0,0.1,0,0.3-0.1c0.2-0.1,0.3-0.1,0.4,0c0.1,0.1,0.2,0.2,0.1,0.4s-0.1,0.4-0.2,0.7c-0.4,0.8-0.7,1.8-0.8,2.9
		c-0.1,1.2-0.3,2.1-0.6,2.9c0,0,0,0.1-0.1,0.2c-0.1,0.5-0.2,0.9-0.3,1.1c-0.1,0.3-0.2,0.6-0.4,1c-0.2,0.4-0.4,0.7-0.6,0.9
		s-0.4,0.4-0.7,0.5c-0.2,0.1-0.5,0-0.6-0.2c-0.3-0.3-0.5-0.5-0.3-0.9c0.1-0.2,0.2-0.2,0.4-0.2c0.1,0,0.3,0,0.4-0.1
		c0.1-0.1,0.2-0.2,0.2-0.3c0-0.1,0.1-0.2,0.1-0.4c0.1-0.3,0.2-0.7,0.4-1.3c0.2-0.6,0.4-1.1,0.5-1.6c0.1-0.5,0.2-1,0.2-1.5
		c0-0.3,0-0.5,0-0.6c0,0-0.2-0.1-0.4-0.1c-0.4,0-0.7-0.2-1.1-0.5c-0.4-0.3-0.5-0.7-0.6-1.1c0-0.3-0.1-0.5-0.2-0.5
		c-0.1,0-0.2,0-0.5,0.2c-0.7,0.4-1.1,0.7-1.4,0.8c-0.2,0.1-0.4,0.1-0.6-0.1c-0.2-0.1-0.2-0.2-0.3-0.4
		C272.4,88.9,272.5,88.7,272.8,88.5z M277.5,86.2c-0.1,0-0.1,0.1-0.3,0.3c0,0-0.2,0.2-0.4,0.4s-0.4,0.5-0.4,0.6c0,0.2,0,0.5,0.1,0.8
		c0.1,0.3,0.2,0.5,0.2,0.5s0.1,0.1,0.2,0.2c0.4,0.1,0.6,0,0.6-0.3c0-1.2,0-1.9,0-2.2C277.6,86.3,277.5,86.2,277.5,86.2z M288.2,79.1
		c0.3-1.2,0.5-1.9,0.5-2.3c0-0.2-0.1-0.4-0.2-0.4c-0.1-0.1-0.4,0-0.7,0c-0.3,0.1-0.6,0.1-0.8,0c-0.2-0.1-0.3-0.3-0.4-0.6
		c0-0.1,0-0.1,0-0.1c0,0,0-0.1,0-0.1c0,0,0,0,0.1-0.1c0,0,0.1-0.1,0.1-0.1c0,0,0.1-0.1,0.2-0.1c0.1-0.1,0.2-0.1,0.3-0.2
		c0.3-0.2,0.6-0.3,1.1-0.2c0.4,0.1,0.8,0.3,1.2,0.6c0.3,0.3,0.5,0.5,0.5,0.7c0.1,0.2,0.1,0.5,0,0.9s-0.1,0.8-0.3,1.5
		c-0.2,0.6-0.3,1-0.3,1c-0.1,0.3-0.1,0.6-0.2,0.7c-0.1,0.3-0.1,0.5,0,0.6c0.2,0.1,0.4,0.1,0.8,0c0.8-0.3,1.5,0.2,2,1.3
		c0.1,0.2,0.2,0.3,0.3,0.3s0.4-0.2,0.9-0.5c0.2-0.1,0.4-0.3,0.6-0.4c0.2-0.1,0.3-0.2,0.4-0.3c0.1-0.1,0.2-0.2,0.4-0.4
		c0.3-0.3,0.5-0.4,0.9-0.3c0.3,0.1,0.5,0.3,0.6,0.7c0,0.3,0,0.5-0.1,0.7c-0.1,0.1-0.5,0.3-1.1,0.6c-0.4,0.2-0.7,0.3-0.8,0.4
		c-0.2,0.1-0.3,0.2-0.4,0.3c-0.1,0.1-0.3,0.3-0.5,0.4c-0.3,0.2-0.5,0.4-0.6,0.6s-0.1,0.5,0,1.1c0,0.4,0,0.8,0,1.3
		c0,0.5,0,0.9,0.1,1.3c0.1,0.7,0.1,1.5-0.1,2.4c-0.1,0.9-0.3,1.5-0.5,1.8c-0.2,0.2-0.8,0.4-1.7,0.6c-0.2,0-0.3,0-0.4,0
		s-0.2-0.1-0.5-0.3c-0.5-0.3-0.8-0.7-0.8-1.2c0.1-0.3,0.3-0.4,0.7-0.2c0.1,0,0.1,0.1,0.2,0.2s0.2,0.2,0.3,0.2c0.1,0,0.2,0,0.4,0
		c0.4-0.1,0.6-0.3,0.7-0.6c0.1-0.4,0.2-1,0.3-1.9c0-0.9,0-1.7,0-2.4c0-0.9-0.1-1.3-0.2-1.4c-0.1-0.1-0.6,0.3-1.7,1.1
		c-1.2,0.7-1.9,1.2-2.2,1.3c-0.1,0-0.3-0.1-0.5-0.3c-0.2-0.2-0.3-0.3-0.3-0.5c0-0.2,0.1-0.5,0.5-0.8c0.4-0.3,0.8-0.6,1.4-0.8
		c0.3-0.1,0.6-0.3,0.7-0.4c0.2-0.1,0.4-0.3,0.6-0.4c0.2-0.2,0.4-0.3,0.6-0.4c0.3-0.2,0.5-0.4,0.6-0.5c0.1-0.1,0.1-0.3,0.1-0.5
		c0-0.2-0.1-0.4-0.3-0.5c-0.2-0.1-0.5-0.1-1-0.1c-0.8,0-1.3-0.2-1.5-0.5C287.8,81.2,287.9,80.2,288.2,79.1z"/>
	<path class="st0" d="M301.7,76.3c0.1,0.1,0.2,0.2,0.2,0.3s0.1,0.3,0.1,0.7c0.1,0.5,0.1,1.4,0.1,2.6c0,1.2,0,2,0,2.4
		c0.1,3.3-0.1,5.8-0.4,7.6c-0.1,1-0.3,1.6-0.5,1.7c-0.1,0.1-0.3,0.1-0.4,0c-0.1,0-0.2-0.1-0.3-0.2c-0.1-0.2,0-1.1,0.3-2.5
		c0.3-1.4,0.4-2.4,0.3-2.8c0.1-0.5,0.1-1.6,0-3.2c-0.1-1.6-0.1-2.6,0-2.9c0-0.1,0-0.6-0.1-1.4c-0.1-0.8-0.1-1.3-0.1-1.5
		c0-0.3,0.1-0.5,0.2-0.6C301.2,76.1,301.4,76.1,301.7,76.3z M309.1,74c0.3,0,0.6,0.1,1,0.3c0.3,0.2,0.6,0.4,0.7,0.7
		c0.1,0.3,0.3,1.1,0.5,2.3c0.3,1.3,0.6,3.1,1,5.3c0.3,1.5,0.4,2.5,0.5,2.8c0.1,0.3,0.2,0.5,0.3,0.7c0.2,0.3,0.8,0.6,1.6,0.9
		c0.8,0.2,1.4,0.3,2,0.3c0.6,0,2-0.2,4.4-0.6c0.4-0.1,0.9-0.2,1.5-0.4c0.1,0,0.1-0.1,0.1-0.3c0-0.1-0.2-0.5-0.4-1
		c-0.3-0.7-0.4-1.1-0.3-1.3c0.3-0.3,0.7,0.1,1.4,1.3c0,0,0,0,0,0.1c0.4,0.8,0.7,1.3,0.7,1.4c0,0.1,0.1,0.3,0,0.4
		c-0.1,0.3-0.3,0.4-0.5,0.5c-0.2,0.1-0.5,0.1-0.9,0.1c-0.3,0-0.7,0-1.1,0.2c-0.7,0.2-1.7,0.4-3.1,0.6c-1.4,0.2-2.3,0.3-2.7,0.2
		c-0.3,0-0.8-0.1-1.5-0.3c-0.7-0.2-1.1-0.3-1.4-0.4c-0.6-0.3-1-0.8-1.2-1.5c-0.1-0.2-0.3-1.2-0.5-2.9c-0.2-1.7-0.4-2.9-0.6-3.5
		c-0.2-1.2-0.4-2-0.5-2.5c-0.1-0.9-0.3-1.4-0.5-1.7c-0.2-0.3-0.5-0.4-0.9-0.4c-0.3,0-0.7,0.1-1.1,0.3c-0.4,0.2-0.8,0.4-1,0.5
		c-0.3,0.2-0.6,0.4-1.1,0.8c-0.5,0.4-0.8,0.6-0.9,0.6c-0.6,0.4-1,0.7-1.2,1c-0.4,0.5-0.7,0.6-0.9,0.4c-0.2-0.2-0.3-0.5-0.1-0.8
		c0.4-0.5,1.2-1.2,2.4-2c0.9-0.7,2-1.3,3.3-1.9C308.5,74.1,308.8,74,309.1,74z M307.4,87.8c0,0,0.1-0.2,0.4-0.6s0.4-0.7,0.5-1
		c0-0.2,0.1-0.4,0.4-0.5c0.3-0.1,0.5-0.1,0.6,0.1c0,0,0.3,0.3,0.7,0.7c0.4,0.4,0.7,0.8,0.9,1.3c0.2,0.5,0.4,0.9,0.4,1.2
		c0,0.3-0.1,0.5-0.3,0.6c-0.3,0-0.5-0.2-0.8-0.8c-0.1-0.3-0.3-0.6-0.6-1c-0.3-0.4-0.5-0.5-0.6-0.6c-0.1,0-0.4,0.3-0.8,0.9
		c-0.4,0.5-0.7,0.9-0.9,1.1s-0.5,0.3-0.7,0.4c-0.2,0-0.4,0-0.6-0.2c-0.2-0.2-0.3-0.3-0.3-0.4c0-0.1,0.1-0.6,0.2-1.4
		c0.1-0.8,0.2-1.3,0.2-1.6c0-0.3,0-0.5-0.1-0.7c-0.1-0.2-0.1-0.4-0.1-0.6l0-0.2c0,0,0,0-0.1,0c-0.1,0.1-0.2,0.4-0.3,0.9
		c-0.1,0.5-0.2,0.8-0.4,0.9c0,0-0.1,0-0.2,0c-0.2,0-0.3,0-0.3-0.1c0,0-0.1-0.2-0.1-0.5c0-0.3-0.1-0.5-0.1-0.7
		c-0.1-0.8-0.2-1.3-0.4-1.5c-0.2-0.4-0.3-0.8-0.1-1c0.2-0.2,0.3-0.2,0.5-0.2c0.2,0.1,0.4,0.3,0.4,0.6c0,0.1,0.1,0.2,0.1,0.2
		c0,0,0,0.1,0.1,0.1c0,0,0,0,0.1,0c0,0,0.1-0.1,0.1-0.1c0,0,0.1-0.1,0.1-0.1c0.1-0.1,0.1-0.1,0.2-0.2c0.3-0.3,0.4-0.5,0.4-0.7
		c0-0.2,0-0.5,0-0.8c-0.1-0.4-0.1-0.5-0.2-0.5c-0.1,0-0.3,0.1-0.7,0.4c-0.4,0.3-0.7,0.4-0.9,0.4s-0.3-0.2-0.4-0.6
		c-0.1-0.4,0-0.7,0.4-0.8c0.2,0,0.6-0.2,1.1-0.6c0.5-0.3,0.9-0.7,1.2-1c0.2-0.2,0.3-0.3,0.4-0.3c0,0,0.1-0.1,0.2-0.1
		c0.1-0.1,0.2-0.1,0.3-0.1c0.1,0,0.1,0,0.2,0.1c0.4,0.3,0.3,0.6-0.2,1.1c-0.1,0.1-0.2,0.2-0.2,0.3c0,0.1,0,0.3,0,0.7
		c0,0.7,0,1.1,0.1,1.1c0,0,0.1,0,0.1,0c0.2-0.1,0.4-0.2,0.7-0.3c0.6-0.4,1.1-0.4,1.3,0c0.2,0.3,0.2,0.8,0,1.4
		c-0.1,0.2-0.3,0.6-0.7,1.2c-0.4,0.6-0.7,1-1,1.2c-0.1,0.1-0.2,0.3-0.3,0.4c-0.1,0.1-0.1,0.5-0.2,1c-0.2,1.2-0.2,1.8,0,1.8
		C307.3,87.9,307.4,87.8,307.4,87.8z M308.3,82.1c-0.1,0-0.3,0.1-0.5,0.3c-0.2,0.1-0.3,0.2-0.3,0.3c-0.1,0.1-0.1,0.2-0.1,0.4
		c0,0.2,0,0.4,0,0.5c0,0.1,0,0.2,0.1,0.2c0,0,0.1,0,0.2-0.1c0.1-0.1,0.2-0.2,0.3-0.4C308.4,82.4,308.5,82,308.3,82.1z"/>
	<path class="st0" d="M326.2,76.1c-0.7-0.5-0.4-1.2,0.7-2c0.3-0.2,0.5-0.2,0.6-0.1c0.1,0.1,0.1,0.3,0,0.6c0,0.2-0.1,0.3-0.1,0.4
		c0,0.1,0,0.2,0.1,0.3c0.1,0.1,0.3,0.1,0.6,0.2c0.3,0,0.6,0,0.9-0.1c0.3-0.1,0.5-0.1,0.6,0c0.1,0,0.1,0.2,0.1,0.3
		c0,0.3-0.4,0.6-1.2,0.7C327.3,76.6,326.6,76.5,326.2,76.1z M330.2,81.4c-1.3,1-2.3,1.6-3,1.9c-0.5-0.1-0.6-0.4-0.3-0.8
		c0.1-0.2,0.3-0.4,0.5-0.6c0.2-0.2,0.7-0.5,1.3-0.9c0.6-0.4,1.4-1,2.3-1.8c0.9-0.8,1.6-1.4,2-1.7c0.3-0.2,0.5-0.3,0.8-0.2
		c0.3,0,0.4,0.2,0.4,0.6c0,0.4-0.1,0.7-0.2,1.1c-0.1,0.3-0.2,0.7-0.4,1.1s-0.3,0.7-0.4,1c-0.2,0.7-0.5,1.3-0.7,1.9
		c-0.2,0.5-0.4,0.9-0.5,1.2c-0.1,0.3-0.4,0.7-0.7,1.2c-0.3,0.5-0.6,1-0.8,1.4c-0.2,0.4-0.4,0.7-0.7,1.1c-0.3,0.4-0.5,0.6-0.6,0.7
		c-0.5,0-0.8-0.1-0.8-0.4c-0.1-0.3,0.1-0.7,0.4-1.2c0.2-0.4,0.6-0.9,0.9-1.5c0.4-0.6,0.6-1,0.7-1.1c0.1-0.2,0.2-0.4,0.4-0.8
		c0.2-0.4,0.4-0.8,0.5-1.1c0.1-0.4,0.3-0.9,0.6-1.5c0.3-0.6,0.3-0.9,0.2-0.9C332.1,79.9,331.5,80.4,330.2,81.4z M333.9,71.8
		c-0.3,0.8-0.4,1.2-0.4,1.4c-0.3,1.1-0.8,2.3-1.4,3.4s-1.3,2.1-1.9,2.7c-0.1,0.1-0.2,0.2-0.3,0.4c-0.1,0.1-0.2,0.2-0.2,0.3
		c-0.1,0.1-0.1,0.1-0.2,0.2s-0.1,0.1-0.2,0.1s-0.1,0-0.2,0c0-0.1,0-0.3,0.1-0.4c0.1-0.1,0.2-0.3,0.4-0.5c0.1-0.2,0.2-0.3,0.3-0.3
		c0.1-0.1,0.2-0.4,0.5-0.8c0.3-0.4,0.5-0.8,0.7-1.2c0.2-0.4,0.3-0.6,0.3-0.6c0.8-1.4,1.4-3.4,1.7-6c0.1-0.3,0.3-0.5,0.7-0.5
		c0.4,0,0.6,0.1,0.7,0.4C334.3,70.5,334.2,71,333.9,71.8z M330.7,70.9c0.1,0.3,0.2,0.9,0.3,1.7c0.1,0.8,0.2,1.3,0.3,1.6l0.2,1.1
		l-0.2,0.5c-0.2,0.3-0.3,0.5-0.4,0.6c-0.1,0.1-0.2,0.2-0.4,0.2c-0.2,0.1-0.4,0-0.6-0.3c-0.2-0.3-0.1-0.4,0.1-0.5
		c0.2-0.1,0.3-0.3,0.3-0.5c0-0.2,0-0.5-0.2-1.1c-0.2-1-0.4-1.6-0.8-1.9c-0.1-0.1-0.2-0.2-0.2-0.3c0-0.1,0-0.3,0-0.5
		c0-0.2,0-0.4,0-0.5c0-0.5,0.1-0.9,0.2-1.1C330,69.5,330.4,69.8,330.7,70.9z M345.7,82.5c0.1-0.2,0.3-0.2,0.5-0.2
		c0.2,0,0.3,0.1,0.4,0.3c0.1,0.2,0.2,0.5,0.2,1.2c0.1,0.6,0.1,1,0,1.1c-0.1,0.2-0.3,0.3-0.4,0.4c-0.1,0.1-0.3,0.1-0.6,0.2
		c-0.3,0.1-0.5,0.1-0.7,0.2c-0.8,0.4-2.2,0.7-4,0.9c-1.8,0.2-3.3,0.2-4.4,0c-0.6,0-1.2-0.1-1.9-0.4c-0.3-0.1-0.5-0.2-0.7-0.4
		c-0.1-0.2-0.2-0.5-0.3-0.9c-0.2-1-0.3-1.6-0.4-1.8c-0.1-0.3-0.2-0.4-0.2-0.4c-0.4-0.1-0.3-0.3,0.1-0.5c0.4-0.2,0.7-0.3,0.8-0.2
		c0.2,0.1,0.3,0.2,0.5,0.5c0.2,0.3,0.4,1,0.8,2.2c0.1,0.1,0.3,0.3,0.6,0.3c0.3,0.1,0.6,0.1,1.1,0.1c0.5,0,0.8,0,0.9,0.1
		c0.8,0.1,1.8,0,3.2-0.1c1.3-0.1,2.4-0.4,3.3-0.7c0.6-0.2,0.9-0.4,1-0.5c0.1-0.1,0.1-0.4,0.1-0.7C345.6,82.9,345.6,82.6,345.7,82.5z
		"/>
</g>
<line class="st1" x1="190.1" y1="118.4" x2="361.3" y2="92.7"/>
<line class="st2" x1="99.1" y1="89" x2="321.3" y2="55.6"/>
</svg>
